SplineFontDB: 3.2
FontName: nasin-koko
FullName: nasin Koko
FamilyName: nasin Koko
Weight: Regular
Copyright: Copyright (c) 2024, neverRare
Version: 0.001
DefaultBaseFilename: nasin-koko
ItalicAngle: 0
UnderlinePosition: 0
UnderlineWidth: 0
Ascent: 1000
Descent: 0
InvalidEm: 0
LayerCount: 2
Layer: 0 0 "Back" 1
Layer: 1 0 "Fore" 0
XUID: [1021 756 1414093791 30187]
FSType: 0
OS2Version: 0
OS2_WeightWidthSlopeOnly: 0
OS2_UseTypoMetrics: 1
CreationTime: 1707897574
ModificationTime: 1708046547
PfmFamily: 33
TTFWeight: 400
TTFWidth: 5
LineGap: 0
VLineGap: 0
Panose: 0 0 6 9 0 0 0 0 0 0
OS2TypoAscent: 1000
OS2TypoAOffset: 0
OS2TypoDescent: 0
OS2TypoDOffset: 0
OS2TypoLinegap: 0
OS2WinAscent: 1000
OS2WinAOffset: 0
OS2WinDescent: 386
OS2WinDOffset: 0
HheadAscent: 1000
HheadAOffset: 0
HheadDescent: -386
HheadDOffset: 0
OS2CapHeight: 1000
OS2Vendor: 'PfEd'
MarkAttachClasses: 1
DEI: 91125

StartChar: uF1900
Encoding: 989440 989440 0
Width: 1000
Flags: W
HStem: -49.9814 90.9922<394.095 509.738 728.181 747.812> 252.62 95.2158<394.404 548.707>
VStem: 252.17 101.672<81.0122 212.717> 446.188 105.976<409.792 850> 548.707 101.672<128.025 252.62>
LayerCount: 2
Fore
SplineSet
446.1875 409.791992188 m 1xf0
 446.1875 850 l 1
 552.163085938 850 l 1
 552.163085938 409.791992188 l 1
 446.1875 409.791992188 l 1xf0
451.274414062 347.8359375 m 1
 650.37890625 347.8359375 l 1
 650.37890625 148.927734375 l 1xe8
 652.3515625 128.025390625 l 1
 660.145507812 87.5263671875 690.112304688 55.63671875 728.180664062 47.3544921875 c 1
 747.811523438 45.234375 l 1
 747.811523438 -49.9814453125 l 1
 685.953125 -49.9814453125 630.69921875 -21.8076171875 594.177734375 22.4091796875 c 1
 586.62890625 32.484375 l 1
 569.16796875 9.9677734375 l 1
 535.614257812 -27.0087890625 488.7734375 -49.9814453125 436.943359375 -49.9814453125 c 0
 334.896484375 -49.9814453125 252.169921875 39.0712890625 252.169921875 148.927734375 c 0
 252.169921875 251.919921875 330.509765625 336.619140625 430.91015625 346.809570312 c 1
 451.274414062 347.8359375 l 1
451.274414062 252.620117188 m 2
 397.455078125 252.620117188 353.841796875 205.241210938 353.841796875 146.80859375 c 0
 353.841796875 88.375 397.455078125 41.0107421875 451.274414062 41.0107421875 c 0
 505.077148438 41.0107421875 548.70703125 88.375 548.70703125 146.80859375 c 2
 548.70703125 252.620117188 l 1
 451.274414062 252.620117188 l 2
EndSplineSet
Validated: 1
EndChar

StartChar: uF1901
Encoding: 989441 989441 1
Width: 1000
Flags: W
HStem: -50 83<447.213 549.61> 118 81<127 282 408 591 717 872> 281 82<127 276 382 617 723 872> 445 81<127 282 408 591 717 872> 610 83<445.718 551.334> 703 147<275.5 379.375 619.5 723.375>
VStem: 254 147<724.625 828.5> 276 112<199 281 363 445> 598 147<724.625 828.5> 610 113<199 279.688 364.266 445> 617 106<363 443.688>
LayerCount: 2
Fore
SplineSet
254 777 m 0xfe
 254 817 287 850 327 850 c 0
 368 850 401 817 401 777 c 0
 401 736 368 703 327 703 c 0
 287 703 254 736 254 777 c 0xfe
598 777 m 0xfc80
 598 817 631 850 671 850 c 0
 712 850 745 817 745 777 c 0
 745 736 712 703 671 703 c 0
 631 703 598 736 598 777 c 0xfc80
408 118 m 1
 413 103 l 2
 427 73 454 33 499 33 c 0
 523 33 558 45 585 103 c 2
 591 118 l 1
 408 118 l 1
382 281 m 1
 384 253 386 226 388 199 c 1
 610 199 l 1xfd40
 612 226 615 253 617 281 c 1xfc20
 382 281 l 1
388 445 m 1
 386 417 384 390 382 363 c 1
 617 363 l 1xfd20
 615 390 612 417 610 445 c 1
 388 445 l 1
499 610 m 0
 475 610 440 599 413 541 c 1
 408 526 l 1
 591 526 l 1
 585 541 l 2
 572 570 545 610 499 610 c 0
276 280 m 0
 276 281 276 281 277 281 c 1
 127 281 l 1
 127 363 l 1
 276 363 l 1
 276 363 276 365 276 367 c 0
 276 377 276 403 279 433 c 1
 282 445 l 1
 127 445 l 1
 127 526 l 1
 301 526 l 1
 310 553 l 2
 323 583 374 693 499 693 c 0
 548 693 636 675 688 553 c 1
 697 526 l 1
 872 526 l 1
 872 445 l 1
 717 445 l 1
 719 433 l 2
 719 432 723 395 723 371 c 0xfd40
 723 368 723 365 723 363 c 1
 872 363 l 1
 872 281 l 1
 722 281 l 1
 723 281 723 280 723 280 c 0
 723 256 722 233 719 211 c 2
 717 199 l 1
 872 199 l 1
 872 118 l 1
 697 118 l 1
 688 91 l 2
 675 60 625 -50 500 -50 c 0
 450 -50 362 -31 310 91 c 1
 301 118 l 1
 127 118 l 1
 127 199 l 1
 282 199 l 1
 279 211 l 2
 277 233 276 256 276 280 c 0
EndSplineSet
Validated: 1
EndChar

StartChar: uF1902
Encoding: 989442 989442 2
Width: 1000
Flags: W
LayerCount: 2
Fore
SplineSet
186.431640625 850 m 1
 500.348632812 478.6875 l 1
 813.549804688 849.159179688 l 1
 891.286132812 783.754882812 l 1
 566.868164062 400.008789062 l 1
 891.286132812 16.263671875 l 1
 813.549804688 -49.140625 l 1
 500.348632812 321.331054688 l 1
 186.431640625 -49.9814453125 l 1
 108.694335938 15.4228515625 l 1
 433.829101562 400.008789062 l 1
 108.694335938 784.595703125 l 1
 186.431640625 850 l 1
EndSplineSet
Validated: 1
EndChar

StartChar: uF1903
Encoding: 989443 989443 3
Width: 1000
Flags: W
HStem: 352 96<50 241 347 591 695.102 839>
VStem: 241 106<71 352 448 729> 591 108<287.785 352 448 512.215>
LayerCount: 2
Fore
SplineSet
347 352 m 1
 347 71 l 0
 369 82 560 183 591 352 c 1
 347 352 l 1
591 448 m 1
 560 617 369 718 347 729 c 0
 347 448 l 1
 591 448 l 1
241 824 m 1
 370 824 l 1
 423 796 l 1
 443 782 464 769 484 756 c 1
 604 671 682 564 699 448 c 1
 839 448 l 1
 717 571 l 1
 798 633 l 1
 979 400 l 1
 798 167 l 1
 717 229 l 1
 839 352 l 1
 699 352 l 1
 682 236 604 129 484 44 c 1
 464 31 443 18 423 4 c 1
 370 -24 l 1
 241 -24 l 1
 241 352 l 1
 50 352 l 1
 50 448 l 1
 241 448 l 1
 241 824 l 1
EndSplineSet
Validated: 1
EndChar

StartChar: uF1904
Encoding: 989444 989444 4
Width: 1000
Flags: W
HStem: 183.167 95.1826<206.235 332.914 667.066 793.746> 520.038 95.1836<206.236 332.914 667.067 793.746>
VStem: 49.9998 105.879<329.573 468.815> 844.101 105.88<329.573 468.813>
LayerCount: 2
Fore
SplineSet
49.9997558595 399.193603516 m 0
 49.9997558595 518.509881673 146.613394413 615.221679688 265.774414062 615.221679688 c 0
 320.998046875 615.221679688 376.219726562 594.129882812 418.352539062 551.948242188 c 2
 499.990234375 470.216796875 l 1
 581.627929688 551.948242188 l 2
 623.760742188 594.129882812 678.982421875 615.221679688 734.206054688 615.221679688 c 0
 853.372163327 615.221679688 949.98071289 518.505578086 949.98071289 399.193603516 c 0
 949.98071289 279.881894858 853.376297363 183.166503906 734.204711914 183.166503906 c 0
 678.982666016 183.166503906 623.760742188 204.256835938 581.627929688 246.4375 c 2
 499.990234375 328.172851562 l 1
 418.352539062 246.4375 l 2
 376.220214844 204.256835938 320.998291016 183.166503906 265.776123047 183.166503906 c 0
 146.603194742 183.166503906 49.9997558595 279.882790219 49.9997558595 399.193603516 c 0
155.879150391 399.193847656 m 0
 155.879150391 332.455792378 206.537281562 278.349121094 269.03137207 278.349121094 c 0
 297.989257812 278.349121094 326.946777344 290.147460938 349.040039062 313.744140625 c 2
 429.05078125 399.194335938 l 1
 349.040039062 484.643554688 l 2
 326.946289062 508.240234375 297.98828125 520.038085938 269.03125 520.038085938 c 0
 206.535169811 520.038085938 155.879150391 465.930044725 155.879150391 399.193847656 c 0
844.101074219 399.193847656 m 0
 844.101074219 465.925387628 793.448608835 520.038085938 730.950195312 520.038085938 c 0
 701.993164062 520.038085938 673.034179688 508.240234375 650.939453125 484.643554688 c 2
 570.930664062 399.194335938 l 1
 650.939453125 313.744140625 l 2
 673.033203125 290.147460938 701.990966797 278.349121094 730.948852539 278.349121094 c 0
 793.443378734 278.349121094 844.101074219 332.457575976 844.101074219 399.193847656 c 0
EndSplineSet
Validated: 1
EndChar

StartChar: uF1905
Encoding: 989445 989445 5
Width: 1000
Flags: W
HStem: 44.582 146.736<448.111 551.869> 284.251 94.5635<226.083 773.897>
VStem: 120.107 105.976<378.814 683.699> 426.622 146.736<66.0713 169.829> 773.897 105.977<378.814 683.699>
LayerCount: 2
Fore
SplineSet
120.107421875 683.69921875 m 1
 226.083007812 683.69921875 l 1
 226.083007812 378.814453125 l 1
 773.897460938 378.814453125 l 1
 773.897460938 683.69921875 l 1
 879.874023438 683.69921875 l 1
 879.874023438 284.250976562 l 1
 120.107421875 284.250976562 l 1
 120.107421875 683.69921875 l 1
573.358398438 117.950195312 m 0
 573.358398438 77.4306640625 540.509765625 44.58203125 499.990234375 44.58203125 c 0
 459.470703125 44.58203125 426.622070312 77.4306640625 426.622070312 117.950195312 c 0
 426.622070312 158.469726562 459.470703125 191.318359375 499.990234375 191.318359375 c 0
 540.509765625 191.318359375 573.358398438 158.469726562 573.358398438 117.950195312 c 0
EndSplineSet
Validated: 1
EndChar

StartChar: uF1906
Encoding: 989446 989446 6
Width: 1000
Flags: W
LayerCount: 2
Fore
SplineSet
826.395507812 -49.9814453125 m 1
 499.990234375 209.822265625 l 1
 173.5859375 -49.9814453125 l 1
 110.325195312 29.5322265625 l 1
 499.990234375 339.684570312 l 1
 889.65625 29.5322265625 l 1
 826.395507812 -49.9814453125 l 1
173.5859375 850 m 1
 499.990234375 590.196289062 l 1
 826.395507812 850 l 1
 889.65625 770.487304688 l 1
 499.990234375 460.333984375 l 1
 110.325195312 770.487304688 l 1
 173.5859375 850 l 1
EndSplineSet
Validated: 1
EndChar

StartChar: uF1907
Encoding: 989447 989447 7
Width: 1000
Flags: W
VStem: 447.85 105.912<-49.9814 363.244>
LayerCount: 2
Fore
SplineSet
193.420898438 850 m 1
 500.805664062 460.268554688 l 1
 808.185546875 850 l 1
 888.025390625 787.063476562 l 1
 553.76171875 363.244140625 l 1
 553.76171875 -49.9814453125 l 1
 447.849609375 -49.9814453125 l 1
 447.849609375 363.244140625 l 1
 113.5859375 787.063476562 l 1
 193.420898438 850 l 1
EndSplineSet
Validated: 1
EndChar

StartChar: uF1908
Encoding: 989448 989448 8
Width: 1000
Flags: W
HStem: -2.69922 95.3125<77.7168 250.327 751.431 923.895>
LayerCount: 2
Fore
SplineSet
444.6875 804.348632812 m 1
 557.0703125 804.348632812 l 1
 751.430664062 92.61328125 l 1
 923.89453125 92.61328125 l 1
 923.89453125 -2.69921875 l 1
 669.991210938 -2.69921875 l 1
 500.88671875 658.639648438 l 1
 331.766601562 -2.69921875 l 1
 77.716796875 -2.69921875 l 1
 77.716796875 92.61328125 l 1
 250.327148438 92.61328125 l 1
 444.6875 804.348632812 l 1
EndSplineSet
Validated: 1
EndChar

StartChar: uF1909
Encoding: 989449 989449 9
Width: 1000
Flags: W
LayerCount: 2
Fore
SplineSet
529.452148438 850 m 1
 979.328125 400.008789062 l 1
 529.452148438 -49.9814453125 l 1
 457.599609375 21.8916015625 l 1
 835.625 400.008789062 l 1
 457.599609375 778.125 l 1
 529.452148438 850 l 1
121.852539062 850 m 1
 571.727539062 400.008789062 l 1
 121.852539062 -49.9814453125 l 1
 50 21.8916015625 l 1
 428.025390625 400.008789062 l 1
 50 778.125 l 1
 121.852539062 850 l 1
EndSplineSet
Validated: 1
EndChar

StartChar: uF190A
Encoding: 989450 989450 10
Width: 1000
Flags: W
HStem: 352.32 95.3779<76.0859 447.002 552.979 923.895>
VStem: 447.002 105.977<-23.8945 352.32 447.698 823.913>
LayerCount: 2
Fore
SplineSet
447.001953125 823.913085938 m 1
 552.978515625 823.913085938 l 1
 552.978515625 447.698242188 l 1
 923.89453125 447.698242188 l 1
 923.89453125 352.3203125 l 1
 552.978515625 352.3203125 l 1
 552.978515625 -23.89453125 l 1
 447.001953125 -23.89453125 l 1
 447.001953125 352.3203125 l 1
 76.0859375 352.3203125 l 1
 76.0859375 447.698242188 l 1
 447.001953125 447.698242188 l 1
 447.001953125 823.913085938 l 1
EndSplineSet
Validated: 1
EndChar

StartChar: uF190B
Encoding: 989451 989451 11
Width: 1000
Flags: W
HStem: -45 94<193.446 299.491> 269 96<214.884 401.453> 429 96<592.509 784.302> 748 95<697.599 809.435>
VStem: 50 106<86.3362 214.728> 844 106<580.068 713.115>
LayerCount: 2
Fore
SplineSet
403 260 m 1
 361 267 334 269 311 269 c 0
 186 269 156 198 156 147 c 0
 156 133 158 121 162 112 c 0
 171 84 205 49 247 49 c 0
 291 49 344 87 388 211 c 0
 393 227 398 243 403 260 c 1
702 525 m 0
 799 525 844 588 844 648 c 0
 844 681 830 714 801 733 c 0
 787 742 770 748 751 748 c 0
 730 748 707 740 687 718 c 0
 669 699 631 658 591 543 c 1
 623 535 667 525 702 525 c 0
428 352 m 1
 441 404 451 444 461 480 c 1
 375 507 202 570 64 697 c 1
 132 771 l 1
 205 703 318 628 490 572 c 1
 539 708 621 843 752 843 c 0
 856 843 950 762 950 649 c 0
 950 629 947 608 940 586 c 0
 928 546 878 429 706 429 c 0
 704 429 703 429 701 429 c 0
 660 430 617 438 563 451 c 1
 557 431 552 410 547 389 c 2
 542 373 l 2
 539 358 535 342 531 326 c 1
 617 299 824 214 926 16 c 1
 836 -30 l 1
 808 26 720 162 504 234 c 1
 477 146 411 -45 247 -45 c 0
 143 -45 50 35 50 147 c 0
 50 168 53 189 60 211 c 0
 80 276 138 365 306 365 c 0
 346 365 384 360 428 352 c 1
EndSplineSet
Validated: 1
EndChar

StartChar: uF190C
Encoding: 989452 989452 12
Width: 1000
Flags: W
HStem: -49.9814 95.293<375.661 623.18> 754.707 95.293<371.766 627.123>
VStem: 50 105.881<269.53 533.543> 844.102 105.879<268.986 534.074>
LayerCount: 2
Fore
SplineSet
50 401.309570312 m 0
 50 651.438493382 212.423758285 850 499.272460938 850 c 0
 786.347431578 850 949.98046875 652.934133493 949.98046875 401.309570312 c 0
 949.98046875 136.780808872 774.004222159 -49.9814453125 499.272460938 -49.9814453125 c 0
 224.596369307 -49.9814453125 50 138.375120402 50 401.309570312 c 0
844.1015625 401.034179688 m 0
 844.1015625 599.457614712 718.894669314 754.70703125 499.436523438 754.70703125 c 0
 280.114571026 754.70703125 155.880859375 598.229266413 155.880859375 401.034179688 c 0
 155.880859375 193.752179277 289.419355465 45.3115234375 499.436523438 45.3115234375 c 0
 709.489456112 45.3115234375 844.1015625 192.479382665 844.1015625 401.034179688 c 0
EndSplineSet
Validated: 1
EndChar

StartChar: uF190D
Encoding: 989453 989453 13
Width: 1000
Flags: W
HStem: 493.789 95.3467<395.75 605.315>
LayerCount: 2
Fore
SplineSet
194.583007812 210.8828125 m 1
 92.390625 234.295898438 l 1
 109.133789062 295.38671875 l 1
 173.6171875 468.012695312 324.591796875 589.135742188 500.528320312 589.135742188 c 0
 676.481445312 589.135742188 827.439453125 468.012695312 891.921875 295.38671875 c 1
 907.590820312 238.256835938 l 1
 805.462890625 214.861328125 l 1
 794.327148438 258.279296875 l 1
 745.919921875 396.68359375 632.606445312 493.7890625 500.528320312 493.7890625 c 0
 368.465820312 493.7890625 255.153320312 396.68359375 206.74609375 258.279296875 c 1
 194.583007812 210.8828125 l 1
EndSplineSet
Validated: 1
EndChar

StartChar: uF190E
Encoding: 989454 989454 14
Width: 1000
Flags: W
HStem: 336.212 95.3291<182.062 447.002 552.979 817.918> 728.579 95.334<182.062 447.002 552.979 817.918>
VStem: 76.0859 105.977<431.541 728.579> 447.002 105.977<-49.9814 336.212 431.541 728.579> 817.918 105.977<431.541 728.579>
CounterMasks: 1 38
LayerCount: 2
Fore
SplineSet
76.0859375 823.913085938 m 1
 923.89453125 823.913085938 l 1
 923.89453125 336.211914062 l 1
 552.978515625 336.211914062 l 1
 552.978515625 -49.9814453125 l 1
 447.001953125 -49.9814453125 l 1
 447.001953125 336.211914062 l 1
 76.0859375 336.211914062 l 1
 76.0859375 823.913085938 l 1
182.0625 728.579101562 m 1
 182.0625 431.541015625 l 1
 447.001953125 431.541015625 l 1
 447.001953125 728.579101562 l 1
 182.0625 728.579101562 l 1
552.978515625 728.579101562 m 1
 552.978515625 431.541015625 l 1
 817.91796875 431.541015625 l 1
 817.91796875 728.579101562 l 1
 552.978515625 728.579101562 l 1
EndSplineSet
Validated: 1
EndChar

StartChar: uF190F
Encoding: 989455 989455 15
Width: 1000
Flags: W
HStem: 207.622 95.2285<182.062 817.918> 411.422 146.736<448.113 551.867>
VStem: 76.0859 105.977<302.851 607.07> 426.622 146.736<432.911 536.669> 817.918 105.977<302.851 607.07>
CounterMasks: 1 38
LayerCount: 2
Fore
SplineSet
76.0859375 607.0703125 m 1
 182.0625 607.0703125 l 1
 182.0625 302.850585938 l 1
 817.91796875 302.850585938 l 1
 817.91796875 607.0703125 l 1
 923.89453125 607.0703125 l 1
 923.89453125 207.622070312 l 1
 76.0859375 207.622070312 l 1
 76.0859375 607.0703125 l 1
426.622070312 484.790039062 m 0
 426.622070312 525.309570312 459.475585938 558.158203125 499.990234375 558.158203125 c 0
 540.504882812 558.158203125 573.358398438 525.309570312 573.358398438 484.790039062 c 0
 573.358398438 444.270507812 540.504882812 411.421875 499.990234375 411.421875 c 0
 459.475585938 411.421875 426.622070312 444.270507812 426.622070312 484.790039062 c 0
EndSplineSet
Validated: 1
EndChar

StartChar: uF1910
Encoding: 989456 989456 16
Width: 1000
Flags: W
HStem: -19.0061 95.5756<327.667 556.55> 151.174 95.298<400.373 509.405> 599.68 95.342<631.819 739.434> 720.387 97.0118<295.059 480.593>
VStem: 89.131 95.2518<215.95 419.203> 162.22 95.6305<605.197 687.577> 617.851 93.2884<123.288 186.438> 625.401 95.3864<315.911 467.359> 817.084 95.3984<192.241 482.685>
LayerCount: 2
Fore
SplineSet
455.210083056 151.17448952 m 0xfa80
 375.490548628 151.17448952 275.331114556 203.298470812 204.485351562 420.911132812 c 1
 191.122200402 392.042427974 184.382781287 359.110435044 184.382781287 322.121828276 c 0
 184.382781287 164.676443938 299.194710383 76.5694717327 439.335917519 76.5694717327 c 0
 568.283635114 76.5694717327 617.851230767 131.683578486 617.851230767 158.039813971 c 0
 617.851230767 165.808836268 603.300608107 180.747615257 597.217773438 186.654296875 c 1
 558.184110583 164.678019471 510.677700277 151.17448952 455.210083056 151.17448952 c 0xfa80
545.1484375 538.365234375 m 1
 537.531873698 530.984477502 484.385916324 477.823276338 477.583984375 425.084960938 c 1
 480.281157036 389.116338527 525.446646885 357.72855669 598.377929688 307.044921875 c 1
 617.197709504 332.264732957 625.401499769 361.886779565 625.401499769 388.865805019 c 0xf180
 625.401499769 429.82643175 598.196921981 503.718056727 545.1484375 538.365234375 c 1
382.11257305 427.205256697 m 0
 382.11257305 445.686700645 387.89782554 489.174057288 431.999023438 552.076171875 c 1
 367.369140625 545.668945312 317.541992188 529.055664062 280.524414062 505.740234375 c 1
 291.555328913 459.439303078 348.11407439 246.472505693 455.2081096 246.472505693 c 0
 475.615552815 246.472505693 493.700471166 248.725833712 510.006835938 252.5078125 c 1
 462.001070004 285.970728685 382.11257305 342.461622984 382.11257305 427.205256697 c 0
441.190091915 -19.0061238757 m 0
 241.498123046 -19.0061238757 89.130959104 120.3064083 89.130959104 320.012850416 c 0xfa80
 89.130959104 404.106805995 116.062225465 482.786761826 173.614257812 541.577148438 c 1
 165.999102402 582.681519538 162.219620539 619.817078008 162.219620539 649.427401001 c 0
 162.219620539 813.027607594 386.983759315 817.398645225 411.008151334 817.398645225 c 0
 435.161933431 817.398645225 473.411410526 814.968806139 510.991210938 799.896484375 c 1
 475.450195312 711.431640625 l 1
 461.737661385 716.936915126 436.491639708 720.386812527 408.206166688 720.386812527 c 0
 352.752399557 720.386812527 257.850132748 702.125959638 257.850132748 656.747264265 c 0
 257.850132748 645.322218209 259.326150369 626.842529125 262.202148438 604.477539062 c 1
 323.899414062 634.525390625 400.774414062 650.537109375 491.708007812 650.552734375 c 0
 504.473632812 650.552734375 516.78125 649.18359375 528.643554688 646.75390625 c 1
 571.754366072 675.197025609 623.688240018 695.022008498 682.743890346 695.022008498 c 0
 846.121886422 695.022008498 912.482809691 492.956274382 912.482809691 360.498738386 c 0
 912.482809691 321.53799191 906.463112071 204.787837925 849.599609375 17.74609375 c 1
 758.329101562 45.4287109375 l 1
 787.84318064 142.550145007 817.084425677 278.536497037 817.084425677 359.571242243 c 0
 817.084425677 432.662443624 782.446402231 599.679990533 683.150729831 599.679990533 c 0
 664.805193001 599.679990533 647.363593593 596.530354285 630.78515625 591.270507812 c 1
 644.059837257 578.661623056 720.787910264 500.947759704 720.787910264 389.142265702 c 0xf580
 720.787910264 340.56247687 703.216855554 290.427085138 670.241210938 248.708007812 c 1
 679.568991751 238.763416561 711.139649676 205.105111883 711.139649676 152.948795279 c 0xf280
 711.139649676 64.4744973436 608.404970939 -19.0061238757 441.190091915 -19.0061238757 c 0
EndSplineSet
Validated: 1
EndChar

StartChar: uF1911
Encoding: 989457 989457 17
Width: 1000
Flags: W
HStem: 91.8955 95.2969<386.841 613.948> 754.702 95.2979<387.872 616.06>
VStem: 121.906 105.838<350.751 586.957> 773.866 105.845<350.435 587.402>
LayerCount: 2
Fore
SplineSet
121.90625 472.040039062 m 0
 121.90625 682.66566056 258.588847865 850 500.202148438 850 c 0
 741.978022748 850 879.7109375 683.947664756 879.7109375 472.040039062 c 0
 879.7109375 399.201431779 863.245580224 287.493293691 777.58203125 199.2578125 c 1
 761.799804688 186.231445312 l 1
 897.807617188 12.7578125 l 1
 817.869140625 -49.9814453125 l 1
 676.643554688 130.12890625 l 1
 657.927734375 120.379882812 l 1
 610.791992188 101.384765625 558.211914062 91.8955078125 500.202148438 91.8955078125 c 0
 442.192382812 91.8955078125 389.807617188 101.384765625 343.08203125 120.379882812 c 1
 324.822265625 129.950195312 l 1
 183.748046875 -49.9814453125 l 1
 103.802734375 12.7578125 l 1
 239.799804688 186.19921875 l 1
 224.036132812 199.2578125 l 1
 179.728822348 244.879002634 121.90625 331.365276215 121.90625 472.040039062 c 0
773.866210938 471.762695312 m 0
 773.866210938 630.335070303 674.690109733 754.702148438 500.366210938 754.702148438 c 0
 326.169219811 754.702148438 227.744140625 629.370011279 227.744140625 471.762695312 c 0
 227.744140625 305.88246869 333.776596466 187.192382812 500.366210938 187.192382812 c 0
 666.970305218 187.192382812 773.866210938 304.848220277 773.866210938 471.762695312 c 0
EndSplineSet
Validated: 1
EndChar

StartChar: uF1912
Encoding: 989458 989458 18
Width: 1000
Flags: W
HStem: -23.8945 91.0566<324.543 677.068> 471.747 95.2969<126.629 284.875 716.736 874.982> 648.564 199.805<450.406 550.888>
VStem: 126.629 249.32<473.643 564.268> 447.898 105.813<734.307 848.369> 625.662 249.32<473.45 564.442>
LayerCount: 2
Fore
SplineSet
447.8984375 848.369140625 m 1
 553.711914062 848.369140625 l 1
 553.711914062 734.14453125 l 1
 592.076171875 723.3984375 l 1
 617.146760178 713.4837935 675.603563434 686.2211781 705.453125 608.1953125 c 1
 716.736328125 567.043945312 l 1
 874.982421875 567.043945312 l 1
 874.982421875 471.747070312 l 1
 716.506835938 471.747070312 l 1
 705.453125 431.248046875 l 1
 693.480379729 399.931221552 671.456431335 362.839554445 629.983398438 335.446289062 c 1
 617.232421875 328.809570312 l 1
 856.36328125 -23.89453125 l 1
 145.248046875 -23.89453125 l 1
 384.346679688 328.744140625 l 1
 371.546875 335.446289062 l 1
 348.548077465 350.70282066 316.085622966 379.124368285 296.158203125 431.248046875 c 1
 285.087890625 471.747070312 l 1
 126.62890625 471.747070312 l 1
 126.62890625 567.043945312 l 1
 284.875 567.043945312 l 1
 296.158203125 608.1953125 l 1
 312.625557604 651.240487039 345.164369175 697.864168859 409.192382812 723.3984375 c 1
 447.8984375 734.306640625 l 1
 447.8984375 848.369140625 l 1
625.662109375 519.778320312 m 0
 625.662109375 591.860573485 580.411027666 648.564453125 500.609375 648.564453125 c 0
 420.859497699 648.564453125 375.94921875 591.426897719 375.94921875 519.778320312 c 0
 375.94921875 444.257417843 424.407352972 390.2265625 500.609375 390.2265625 c 0
 576.794773429 390.2265625 625.662109375 443.77448456 625.662109375 519.778320312 c 0
513.833007812 300.309570312 m 1
 500.447265625 299.169921875 l 1
 487.74609375 300.26171875 l 1
 324.54296875 67.162109375 l 1
 677.068359375 67.162109375 l 1
 513.833007812 300.309570312 l 1
EndSplineSet
Validated: 1
EndChar

StartChar: uF1913
Encoding: 989459 989459 19
Width: 1000
Flags: W
HStem: 222 95<431 708> 446 95<458.768 580.764> 755 95<458.618 581.562>
VStem: 179 106<184.604 404.395> 318 106<580.077 718.969> 617 105<578.361 718.211>
LayerCount: 2
Fore
SplineSet
318 648 m 0
 318 761 391 850 520 850 c 0
 649 850 722 761 722 648 c 0
 722 529 643 446 520 446 c 0
 496 446 448 448 402 479 c 1
 380 497 l 1
 348 470 l 1
 327 447 285 391 285 293 c 0
 285 262 292 83 468 50 c 1
 520 45 l 1
 563 50 l 1
 608 60 672 95 702 193 c 1
 708 222 l 1
 431 222 l 1
 431 317 l 1
 819 317 l 1
 821 293 l 1
 819 269 818 245 816 221 c 1
 808 167 767 -6 586 -44 c 1
 520 -50 520 -50 520 -50 c 0
 311 -50 179 93 179 293 c 0
 179 473 286 561 328 583 c 1
 322 606 l 1
 320 619 318 634 318 648 c 0
617 648 m 0
 617 708 582 755 520 755 c 0
 458 755 424 707 424 648 c 0
 424 586 461 541 520 541 c 0
 579 541 617 585 617 648 c 0
EndSplineSet
Validated: 1
EndChar

StartChar: uF1914
Encoding: 989460 989460 20
Width: 1000
Flags: W
HStem: 141 95<521.154 687> 562 96<520.875 687>
VStem: 846 104<327.591 470.027>
LayerCount: 2
Fore
SplineSet
50 198 m 1
 90 273 134 341 182 399 c 1
 181 401 99 501 50 600 c 1
 135 650 l 1
 181 567 l 1
 196 541 213 516 230 493 c 1
 247 472 l 1
 320 536 l 1
 420 614 530 658 646 658 c 0
 818 658 950 539 950 399 c 0
 950 256 817 141 640 141 c 0
 542 141 430 176 320 262 c 1
 247 327 l 1
 230 305 l 1
 213 282 196 258 181 232 c 1
 135 149 l 1
 50 198 l 1
337 427 m 1
 310 399 l 1
 337 371 l 1
 419 296 523 236 647 236 c 1
 687 239 l 1
 778 255 846 320 846 399 c 0
 846 478 778 544 687 559 c 1
 647 562 l 1
 590 562 471 551 337 427 c 1
EndSplineSet
Validated: 1
EndChar

StartChar: uF1915
Encoding: 989461 989461 21
Width: 1000
Flags: W
HStem: 8.71289 95.3975<417.102 582.878> 310.482 91.1572<259.588 740.394>
VStem: 446.188 105.976<509.246 771.74>
LayerCount: 2
Fore
SplineSet
131.51953125 401.639648438 m 1
 868.4609375 401.639648438 l 1
 861.3515625 367.36328125 l 1
 801.810546875 156.600585938 662.443359375 8.712890625 499.990234375 8.712890625 c 0
 337.538085938 8.712890625 198.154296875 156.600585938 138.62890625 367.36328125 c 1
 131.51953125 401.639648438 l 1
259.587890625 310.482421875 m 1
 276.380859375 274.073242188 l 1
 330.608398438 169.966796875 410.676757812 104.110351562 499.990234375 104.110351562 c 0
 589.303710938 104.110351562 669.372070312 169.966796875 723.600585938 274.073242188 c 1
 740.393554688 310.482421875 l 1
 259.587890625 310.482421875 l 1
127.8359375 710.025390625 m 1
 215.893554688 760.862304688 l 1
 347.221679688 533.391601562 l 1
 259.1640625 482.552734375 l 1
 127.8359375 710.025390625 l 1
783.19140625 760.862304688 m 1
 871.249023438 710.025390625 l 1
 739.919921875 482.552734375 l 1
 651.86328125 533.391601562 l 1
 783.19140625 760.862304688 l 1
446.1875 509.24609375 m 1
 446.1875 771.740234375 l 1
 552.163085938 771.740234375 l 1
 552.163085938 509.24609375 l 1
 446.1875 509.24609375 l 1
EndSplineSet
Validated: 1
EndChar

StartChar: uF1916
Encoding: 989462 989462 22
Width: 1000
Flags: W
HStem: -23.8945 95.3174<77.7168 287.777 564.733 798.207>
LayerCount: 2
Fore
SplineSet
475.92578125 850 m 1
 573.84765625 850 l 1
 949.98046875 -23.89453125 l 1
 564.733398438 -23.89453125 l 1
 564.733398438 71.4228515625 l 1
 798.20703125 71.4228515625 l 1
 535.533203125 703.200195312 l 1
 369.412109375 -23.89453125 l 1
 77.716796875 -23.89453125 l 1
 77.716796875 71.4228515625 l 1
 287.77734375 71.4228515625 l 1
 475.92578125 850 l 1
EndSplineSet
Validated: 1
EndChar

StartChar: uF1919
Encoding: 989465 989465 23
Width: 1000
Flags: W
HStem: 499 96<310 511 617 818> 728 96<310 511 617 818>
VStem: 204 106<595 728> 511 106<412 499 595 728> 749 106<-14 223.339> 818 106<595 728>
LayerCount: 2
Fore
SplineSet
617 728 m 1xf4
 617 595 l 1
 818 595 l 1
 818 728 l 1
 617 728 l 1xf4
310 728 m 1
 310 595 l 1
 511 595 l 1
 511 728 l 1
 310 728 l 1
564 321 m 0
 445 321 378 234 378 125 c 0
 379 -14 l 1
 259 -14 l 1
 53 247 l 1
 133 310 l 1
 206 217 l 1
 284 79 l 1
 274 147 l 1
 278 186 l 1
 286 232 325 380 500 411 c 1
 511 412 l 1
 511 499 l 1
 204 499 l 1
 204 824 l 1
 924 824 l 1
 924 499 l 1xf4
 617 499 l 1
 617 412 l 1
 627 411 l 1
 767 386 855 275 855 126 c 2
 855 -14 l 1
 749 -14 l 1
 749 125 l 0xf8
 749 235 682 321 564 321 c 0
EndSplineSet
Validated: 1
EndChar

StartChar: uF191A
Encoding: 989466 989466 24
Width: 1000
Flags: W
HStem: -50 95<362.034 636.216> 625 95<215.153 361.461 638.117 785.164>
VStem: 50 106<285.211 558.51> 448 106<649 850> 844 106<286.865 558.909>
LayerCount: 2
Fore
SplineSet
727 720 m 0
 842 716 950 632 950 443 c 0
 950 394 946 370 934 300 c 1
 911 175 838 48 710 -8 c 0
 643 -37 573 -50 502 -50 c 0
 450 -50 399 -43 349 -30 c 0
 222 3 124 104 86 225 c 0
 64 291 50 363 50 435 c 0
 50 468 53 502 60 535 c 0
 78 637 166 719 273 719 c 0
 275 719 276 719 278 719 c 0
 290 719 341 717 406 678 c 1
 448 648 l 1
 448 850 l 1
 554 850 l 1
 554 649 l 1
 572 663 l 1
 597 680 660 720 719 720 c 0
 727 720 l 0
716 625 m 0
 679 625 587 593 541 532 c 1
 499 488 l 1
 458 532 l 1
 425 566 l 1
 377 605 313 625 276 625 c 0
 275 625 274 625 274 625 c 0
 230 625 176 588 163 522 c 0
 159 501 157 479 156 457 c 1
 156 453 l 2
 156 450 156 442 156 436 c 0
 156 420 157 403 158 387 c 0
 162 365 165 343 169 322 c 0
 171 310 176 289 186 254 c 0
 192 236 238 98 376 62 c 0
 417 51 459 45 502 45 c 0
 559 45 616 56 668 79 c 0
 755 118 812 216 830 319 c 0
 839 381 844 413 844 435 c 0
 844 439 844 443 843 446 c 1
 844 449 l 1
 843 491 837 530 821 564 c 0
 803 602 759 625 716 625 c 0
EndSplineSet
Validated: 1
EndChar

StartChar: uF191B
Encoding: 989467 989467 25
Width: 1000
Flags: W
HStem: 674.729 95.3633<325.154 674.827>
LayerCount: 2
Fore
SplineSet
272.319335938 770.091796875 m 1
 727.662109375 770.091796875 l 1
 976.067382812 473.390625 l 1
 499.991210938 -17.3916015625 l 1
 23.9140625 473.390625 l 1
 272.319335938 770.091796875 l 1
325.154296875 674.728515625 m 1
 160.783203125 478.396484375 l 1
 499.991210938 128.708984375 l 1
 839.198242188 478.396484375 l 1
 674.827148438 674.728515625 l 1
 325.154296875 674.728515625 l 1
EndSplineSet
Validated: 1
EndChar

StartChar: uF191C
Encoding: 989468 989468 26
Width: 1000
Flags: W
HStem: -43.4645 93.9086<370.244 473.493> 50.8892 94.4975<669.076 826.577> 71.195 95.2844<620.848 779.672> 748.037 95.4403<378.895 638.744>
VStem: 50.0017 105.411<302.62 409.769> 227.654 104.518<604.224 711.506> 754.525 106.92<547.963 672.548> 845.181 104.804<165.345 283.255>
LayerCount: 2
Fore
SplineSet
673.337205359 71.1949769884 m 0xbd
 609.768057947 71.1949769884 543.657460987 -43.4645009077 410.691029789 -43.4645009077 c 0
 386.719124974 -43.4645009077 362.799329303 -39.0763022969 339.80078125 -29.115234375 c 0
 282.499023438 -4.0068359375 264.421875 59.8720703125 240.125 111.751953125 c 1
 179.666885065 190.734638571 50.0016566067 220.647486589 50.0016566067 348.386234698 c 0
 50.0016566067 414.878140846 88.6759968595 481.96873792 145.634765625 516.62890625 c 1
 174.659179688 542.681640625 226.215820312 557.6328125 233.646484375 599.696289062 c 1
 230.86279213 620.389207797 227.654049485 642.446171345 227.654049485 664.070407937 c 0
 227.654049485 693.075924565 233.427221903 721.302878498 253.743164062 744.415039062 c 1
 314.794002562 834.279277331 453.750303055 843.477397318 508.11616144 843.477397318 c 0
 686.589788863 843.477397318 861.444972174 761.475391831 861.444972174 623.495663223 c 0xbe
 861.444972174 574.64398213 834.375948884 529.497636722 826.438476562 481.852539062 c 1
 845.193313187 384.392650734 949.984652369 334.841014597 949.984652369 221.046535378 c 0
 949.984652369 117.507584079 870.090002133 50.8891804513 782.988145744 50.8891804513 c 0xdd
 727.993042266 50.8891804513 696.101680136 71.1949769884 673.337205359 71.1949769884 c 0xbd
721.435856969 485.657076638 m 0
 721.435856969 551.447563401 754.525073792 577.101839151 754.525073792 624.651507523 c 0xbe
 754.525073792 642.379583783 748.926699503 659.241381874 733.327148438 672.536132812 c 0
 673.44140625 728.2578125 587.421875 745.28125 508.037109375 748.037109375 c 0
 446.71875 746.98046875 373.594726562 742.294921875 332.171875 690.822265625 c 1
 332.652395392 661.429004872 339.236211331 632.28078069 339.236211331 602.844298489 c 0
 339.236211331 528.471875611 299.023606118 500.701838916 214.971679688 442.657226562 c 1
 181.809872557 424.486645742 155.413031197 387.84568379 155.413031197 350.004705588 c 0
 155.413031197 339.528293838 157.436294345 328.95990333 161.899414062 318.666015625 c 1
 211.271484375 250.270507812 306.168945312 223.841796875 340.102539062 142.22265625 c 0
 356.113204452 108.477154546 363.513830291 50.4440756545 407.667943224 50.4440756545 c 0
 494.426468545 50.4440756545 559.590357455 166.479397057 661.869847675 166.479397057 c 0
 701.812441252 166.479397057 741.183883729 149.5634467 780.771484375 145.38671875 c 1
 821.843566949 145.601448456 845.180959238 182.758537452 845.180959238 219.98825761 c 0xbd
 845.180959238 300.16537846 721.435856969 372.501415757 721.435856969 485.657076638 c 0
EndSplineSet
Validated: 1
EndChar

StartChar: uF191D
Encoding: 989469 989469 27
Width: 1000
Flags: W
VStem: 220 105<481.474 636.291> 365 106<159.995 315.247> 531 106<482.862 638.011> 676 106<161.636 317.133>
LayerCount: 2
Fore
SplineSet
637 562 m 0
 637 432 782 404 782 246 c 0
 782 155 742 42 568 -17 c 1
 536 75 l 1
 602 99 676 142 676 247 c 0
 676 362 531 395 531 563 c 0
 531 672 613 785 749 816 c 1
 771 720 l 1
 709 705 637 648 637 562 c 0
365 236 m 0
 365 366 220 395 220 552 c 0
 220 643 259 757 434 816 c 1
 466 723 l 1
 397 698 325 655 325 552 c 0
 325 437 471 403 471 235 c 0
 471 126 389 13 253 -17 c 1
 231 78 l 1
 292 93 365 150 365 236 c 0
EndSplineSet
Validated: 1
EndChar

StartChar: uF191E
Encoding: 989470 989470 28
Width: 1000
Flags: W
HStem: 5 96<196 802> 312 95<49 201 364 635 797 950>
LayerCount: 2
Fore
SplineSet
499 829 m 1
 742 407 l 1
 950 407 l 1
 950 312 l 1
 797 312 l 1
 974 5 l 1
 24 5 l 1
 201 312 l 1
 49 312 l 1
 49 407 l 1
 256 407 l 1
 499 829 l 1
499 638 m 1
 364 403 l 1
 635 403 l 1
 499 638 l 1
318 312 m 1
 196 101 l 1
 802 101 l 1
 680 312 l 1
 318 312 l 1
EndSplineSet
Validated: 1
EndChar

StartChar: uF191F
Encoding: 989471 989471 29
Width: 1000
Flags: W
HStem: -22.2646 91.0254<190.913 313.032 688.183 810.314> 291.05 91.0254<189.365 314.601 686.633 811.885> 416.313 91.3994<439.322 561.89> 730.888 91.3955<437.767 563.47>
VStem: 50 101.607<108.08 251.639> 297.82 102.031<547.159 691.345> 352.732 101.606<107.855 251.848> 547.272 101.606<108.082 251.634> 601.76 102.03<546.927 691.558> 850.004 101.607<107.865 251.837>
LayerCount: 2
Fore
SplineSet
547.272460938 180.493164062 m 0xf940
 547.272460938 292.972758125 620.335760308 382.075195312 749.115234375 382.075195312 c 0
 878.001531648 382.075195312 951.611328125 293.650411665 951.611328125 180.493164062 c 0
 951.611328125 61.4278570716 872.350198829 -22.2646484375 749.115234375 -22.2646484375 c 0
 625.910552276 -22.2646484375 547.272460938 62.1486548383 547.272460938 180.493164062 c 0xf940
850.00390625 180.231445312 m 0
 850.00390625 242.380073035 813.392619837 291.049804688 749.279296875 291.049804688 c 0
 685.259668505 291.049804688 648.87890625 242.04927655 648.87890625 180.231445312 c 0
 648.87890625 115.318230129 687.889209192 68.7607421875 749.279296875 68.7607421875 c 0
 810.730848737 68.7607421875 850.00390625 114.967708987 850.00390625 180.231445312 c 0
50 180.493164062 m 0
 50 292.98304578 123.074041225 382.075195312 251.842773438 382.075195312 c 0
 380.7307015 382.075195312 454.338867188 293.650298256 454.338867188 180.493164062 c 0xfa40
 454.338867188 61.4380567251 375.089319006 -22.2646484375 251.842773438 -22.2646484375 c 0
 128.639390355 -22.2646484375 50 62.1483793382 50 180.493164062 c 0
352.732421875 180.231445312 m 0
 352.732421875 242.437523748 316.065496518 291.049804688 252.006835938 291.049804688 c 0
 187.999619431 291.049804688 151.607421875 242.06402146 151.607421875 180.231445312 c 0
 151.607421875 115.310219154 190.623566528 68.7607421875 252.006835938 68.7607421875 c 0
 313.402122305 68.7607421875 352.732421875 114.910387662 352.732421875 180.231445312 c 0
297.8203125 619.885742188 m 0xfcc0
 297.8203125 732.719737384 371.106263354 822.283203125 500.479492188 822.283203125 c 0
 629.950479981 822.283203125 703.790039062 733.416650931 703.790039062 619.885742188 c 0
 703.790039062 500.433272511 624.285400611 416.313476562 500.479492188 416.313476562 c 0
 376.670932554 416.313476562 297.8203125 501.197466785 297.8203125 619.885742188 c 0xfcc0
601.759765625 619.624023438 m 0
 601.759765625 682.305667111 564.824247948 730.887695312 500.643554688 730.887695312 c 0
 436.521218026 730.887695312 399.8515625 681.941517478 399.8515625 619.624023438 c 0
 399.8515625 554.197144869 439.180627368 507.712890625 500.643554688 507.712890625 c 0
 562.133258732 507.712890625 601.759765625 553.815409186 601.759765625 619.624023438 c 0
EndSplineSet
Validated: 1
EndChar

StartChar: uF1920
Encoding: 989472 989472 30
Width: 1000
Flags: W
HStem: 753.023 95.3429<460.698 617.638>
VStem: 424.046 100.4<455.34 499.387> 654.916 105.938<478.865 712.594>
LayerCount: 2
Fore
SplineSet
424.045898438 522.2890625 m 1
 524.446289062 497.670898438 l 1
 503.609375 412.62890625 469.859375 345.733398438 418.975585938 279.359375 c 1
 336.950195312 342.276367188 l 1
 381.41015625 400.254882812 406.176757812 449.296875 424.045898438 522.2890625 c 1
654.916323839 619.171384725 m 0
 654.916323839 663.640980572 652.866246152 753.022533828 550.103327805 753.022533828 c 0
 477.069346461 753.022533828 417.525374576 711.506530947 368.596679688 671.275390625 c 0
 352.961914062 658.443359375 334.211914062 641.977539062 318.592773438 629.145507812 c 1
 255.52734375 707.567382812 l 1
 365.18746459 793.626402549 434.938317326 848.365445022 552.043053716 848.365445022 c 0
 610.300545848 848.365445022 760.854773574 827.966615519 760.854773574 617.089132901 c 0
 760.854773574 562.111717993 747.341508882 317.450006662 521.266601562 67.0810546875 c 0
 470.805664062 11.2236328125 425.123046875 -26.5205078125 394.340820312 -49.7197265625 c 1
 333.461914062 30.4306640625 l 1
 512.218934569 167.178474215 654.916323839 415.985674652 654.916323839 619.171384725 c 0
EndSplineSet
Validated: 1
EndChar

StartChar: uF1921
Encoding: 989473 989473 31
Width: 1000
Flags: W
VStem: 576.896 105.698<276.478 524.261>
LayerCount: 2
Fore
SplineSet
409.111328125 864.655273438 m 1
 447.018771874 839.915380488 682.594726562 675.099617881 682.594726562 399.991210938 c 0
 682.594726562 220.532226562 581.086914062 58.0458984375 416.955078125 -59.5546875 c 1
 409.111328125 -64.6728515625 l 1
 351.624023438 15.4931640625 l 1
 368.743164062 27.068359375 l 1
 498.067382812 125.561523438 576.896484375 256.401367188 576.896484375 399.991210938 c 0
 576.896484375 534.009765625 508.223632812 656.92578125 393.93359375 752.79296875 c 1
 351.869140625 784.830078125 l 1
 409.111328125 864.655273438 l 1
EndSplineSet
Validated: 1
EndChar

StartChar: uF1922
Encoding: 989474 989474 32
Width: 1000
Flags: W
HStem: 158.71 95.3789<631.938 785.024> 352.435 95.1494<50 474.787> 545.93 95.3789<635.437 782.667>
VStem: 471.197 101.851<317.47 352.435 447.584 482.046> 844.102 105.879<318.1 484.802>
LayerCount: 2
Fore
SplineSet
471.116210938 447.583984375 m 1
 474.936515345 492.24334289 522.583495102 641.30859375 708.192382812 641.30859375 c 0
 861.96904461 641.30859375 949.98046875 535.865697092 949.98046875 400.709960938 c 0
 949.98046875 258.747424222 855.458521965 158.709960938 708.192382812 158.709960938 c 0
 525.445711425 158.709960938 475.030340407 306.420009107 471.197265625 352.434570312 c 1
 50 352.434570312 l 1
 50 447.583984375 l 1
 471.116210938 447.583984375 l 1
844.1015625 400.432617188 m 0
 844.1015625 482.159663111 794.689219861 545.9296875 708.35546875 545.9296875 c 0
 622.072828307 545.9296875 573.047851562 481.671519546 573.047851562 400.432617188 c 0
 573.047851562 314.92175851 625.841258796 254.088867188 708.35546875 254.088867188 c 0
 790.866300734 254.088867188 844.1015625 314.399760278 844.1015625 400.432617188 c 0
EndSplineSet
Validated: 1
EndChar

StartChar: uF1924
Encoding: 989476 989476 33
Width: 1000
Flags: W
HStem: -49.9814 95.2979<312.486 487.588> 461.003 91.041<176.145 624.781 747.012 949.98> 754.702 95.2979<310.18 491.705>
VStem: 50 105.879<251.081 458.994> 641.574 109.352<239.842 461.003>
LayerCount: 2
Fore
SplineSet
50 401.313476562 m 0
 50 651.798839289 176.762914035 850 399.900390625 850 c 0
 477.57545362 850 654.588285416 822.285038503 726.338867188 581.440429688 c 1
 731.703125 556.282226562 l 1
 949.98046875 556.282226562 l 1
 949.98046875 461.002929688 l 1
 747.01171875 461.002929688 l 1
 750.92578125 401.313476562 l 1
 750.92578125 136.33870036 613.542834925 -49.9814453125 399.900390625 -49.9814453125 c 0
 186.347995955 -49.9814453125 50 137.884119666 50 401.313476562 c 0
400.079101562 754.702148438 m 0
 346.535118112 754.702148438 250.675056607 734.582762029 193.817382812 603.62890625 c 1
 176.14453125 552.043945312 l 1
 624.78125 552.043945312 l 1
 607.108398438 603.62890625 l 1
 582.284877122 660.80211812 522.83145175 754.702148438 400.079101562 754.702148438 c 0
400.079101562 45.31640625 m 0
 549.180612975 45.31640625 645.046875 192.20565309 645.046875 401.036132812 c 1
 641.57421875 461.002929688 l 1
 159.3671875 461.002929688 l 1
 155.87890625 401.036132812 l 1
 155.87890625 193.479779974 250.992437403 45.31640625 400.079101562 45.31640625 c 0
EndSplineSet
Validated: 1
EndChar

StartChar: uF1925
Encoding: 989477 989477 34
Width: 1000
Flags: W
HStem: 161.383 95.3467<235.638 447.117 552.863 763.593> 728.566 95.3467<235.638 763.593>
VStem: 129.89 105.748<-23.8945 161.383 256.729 728.566> 447.117 105.746<-23.8945 161.383> 763.593 105.732<-23.8945 161.383 256.729 728.566>
LayerCount: 2
Fore
SplineSet
129.889648438 823.913085938 m 1
 870.090820312 823.913085938 l 1
 869.325195312 -23.89453125 l 1
 763.592773438 -23.89453125 l 1
 763.592773438 161.3828125 l 1
 552.86328125 161.3828125 l 1
 552.86328125 -23.89453125 l 1
 447.1171875 -23.89453125 l 1
 447.1171875 161.3828125 l 1
 235.637695312 161.3828125 l 1
 235.637695312 -23.89453125 l 1
 129.889648438 -23.89453125 l 1
 129.889648438 823.913085938 l 1
235.637695312 728.56640625 m 1
 235.637695312 256.729492188 l 1
 763.592773438 256.729492188 l 1
 763.592773438 728.56640625 l 1
 235.637695312 728.56640625 l 1
EndSplineSet
Validated: 1
EndChar

StartChar: uF1927
Encoding: 989479 989479 35
Width: 1000
Flags: W
LayerCount: 2
Fore
SplineSet
258.641601562 850 m 1
 798.353515625 400.008789062 l 1
 258.641601562 -49.9814453125 l 1
 193.475585938 28.06640625 l 1
 639.584960938 400.008789062 l 1
 193.475585938 771.952148438 l 1
 258.641601562 850 l 1
EndSplineSet
Validated: 1
EndChar

StartChar: uF1928
Encoding: 989480 989480 36
Width: 1000
Flags: W
HStem: 248.382 278.799
LayerCount: 2
Fore
SplineSet
642.9609375 527.180664062 m 1
 710.311523438 459.770507812 l 1
 499.09375 248.381835938 l 1
 288.038085938 459.603515625 l 1
 355.389648438 527.014648438 l 1
 499.09375 383.205078125 l 1
 642.9609375 527.180664062 l 1
EndSplineSet
Validated: 1
EndChar

StartChar: uF1929
Encoding: 989481 989481 37
Width: 1000
Flags: W
HStem: 250 95<270.111 394.304> 455 95<606.819 732.51>
VStem: 79 100<467.199 507.75>
LayerCount: 2
Fore
SplineSet
818 274 m 1
 802 376 742 455 674 455 c 0
 617 455 585 420 537 365 c 0
 490 313 432 250 337 250 c 0
 334 250 331 250 328 250 c 0
 210 256 125 333 79 506 c 1
 179 531 l 1
 212 397 264 345 337 345 c 0
 384 345 410 374 461 432 c 0
 509 485 571 550 673 550 c 0
 787 550 893 447 920 291 c 1
 818 274 l 1
EndSplineSet
Validated: 1
EndChar

StartChar: uF192A
Encoding: 989482 989482 38
Width: 1000
Flags: W
HStem: -23.8945 95.3428<235.741 764.239> 728.57 95.3428<235.741 764.239>
VStem: 129.89 105.852<71.4482 728.57> 764.239 105.852<71.4482 728.57>
LayerCount: 2
Fore
SplineSet
129.889648438 823.913085938 m 1
 870.090820312 823.913085938 l 1
 870.090820312 -23.89453125 l 1
 129.889648438 -23.89453125 l 1
 129.889648438 823.913085938 l 1
235.741210938 728.5703125 m 1
 235.741210938 71.4482421875 l 1
 764.239257812 71.4482421875 l 1
 764.239257812 728.5703125 l 1
 235.741210938 728.5703125 l 1
EndSplineSet
Validated: 1
EndChar

StartChar: uF192B
Encoding: 989483 989483 39
Width: 1000
Flags: W
HStem: -14.1123 91.2529<324.215 677.394> 447.291 93.2754<418.838 582.633> 732.757 91.1562<282.481 720.486>
LayerCount: 2
Fore
SplineSet
425.9375 400.008789062 m 1
 575.673828125 400.008789062 l 1
 649.576128526 293.116493109 721.908525143 184.654293372 795.189453125 77.140625 c 2
 857.047851562 -14.1123046875 l 1
 144.563476562 -14.1123046875 l 1
 231.468936789 114.091935607 318.374672877 242.29590004 405.280273438 370.5 c 1
 425.9375 400.008789062 l 1
500.805664062 329.428710938 m 1
 324.21484375 77.140625 l 1
 677.393554688 77.140625 l 1
 500.805664062 329.428710938 l 1
151.084960938 823.913085938 m 1
 848.896484375 823.913085938 l 1
 839.521484375 779.387695312 l 1
 828.196945571 748.603835679 816.876113667 717.816269145 805.559570312 687.024414062 c 1
 739.333007812 542.392578125 627.193359375 447.291015625 499.990234375 447.291015625 c 0
 372.787109375 447.291015625 260.6484375 542.392578125 194.427734375 687.024414062 c 1
 183.100545257 717.810506194 171.775056717 748.598298904 160.451171875 779.387695312 c 1
 151.084960938 823.913085938 l 1
282.481445312 732.756835938 m 1
 312.044921875 672.498046875 l 1
 360.526367188 590.977539062 427.502929688 540.56640625 501.474609375 540.56640625 c 0
 575.461914062 540.56640625 642.438476562 590.977539062 690.909179688 672.498046875 c 1
 720.486328125 732.756835938 l 1
 282.481445312 732.756835938 l 1
EndSplineSet
Validated: 1
EndChar

StartChar: uF192C
Encoding: 989484 989484 40
Width: 1000
Flags: W
HStem: 245.121 94.5635<144.563 855.418> 442.399 146.736<448.111 551.869>
VStem: 426.622 146.736<463.891 567.645>
LayerCount: 2
Fore
SplineSet
426.622070312 515.767578125 m 0
 426.622070312 556.282226562 459.470703125 589.135742188 499.990234375 589.135742188 c 0
 540.509765625 589.135742188 573.358398438 556.282226562 573.358398438 515.767578125 c 0
 573.358398438 475.252929688 540.509765625 442.399414062 499.990234375 442.399414062 c 0
 459.470703125 442.399414062 426.622070312 475.252929688 426.622070312 515.767578125 c 0
144.563476562 245.12109375 m 1
 144.563476562 339.684570312 l 1
 855.41796875 339.684570312 l 1
 855.41796875 245.12109375 l 1
 144.563476562 245.12109375 l 1
EndSplineSet
Validated: 1
EndChar

StartChar: uF192D
Encoding: 989485 989485 41
Width: 1000
Flags: W
HStem: 683 95<498.245 697.573>
VStem: 269 106<148.75 557.218> 818 106<22 559.441>
LayerCount: 2
Fore
SplineSet
596 778 m 0
 669 778 834 758 901 583 c 0
 909 563 914 542 918 520 c 1
 924 453 l 1
 924 22 l 1
 818 22 l 1
 818 453 l 1
 814 500 l 1
 797 603 722 683 596 683 c 0
 562 683 408 673 379 500 c 1
 375 453 l 1
 375 22 l 1
 256 22 l 1
 50 283 l 1
 130 346 l 1
 202 254 l 1
 281 115 l 1
 269 196 l 1
 269 453 l 1
 275 520 l 1
 283 568 335 778 596 778 c 0
EndSplineSet
Validated: 1
EndChar

StartChar: uF192E
Encoding: 989486 989486 42
Width: 1000
Flags: W
HStem: 130.993 95.3135<320.672 676.018> 326.642 146.735<448.111 551.869> 573.712 95.3135<320.388 678.509>
VStem: 50 105.879<334.305 463.005> 426.622 146.736<348.13 451.888> 844.102 105.879<335.286 463.325>
CounterMasks: 1 fc
LayerCount: 2
Fore
SplineSet
50 400.79296875 m 0
 50 549.858561274 211.699552031 669.025390625 499.272460938 669.025390625 c 0
 786.755274518 669.025390625 949.98046875 550.953386066 949.98046875 400.79296875 c 0
 949.98046875 242.910930578 774.460035654 130.993164062 499.272460938 130.993164062 c 0
 408.960540512 130.993164062 175.301133171 145.753765374 81.5810546875 292.321289062 c 0
 60.5322265625 325.23828125 50 361.401367188 50 400.79296875 c 0
844.1015625 400.513671875 m 0
 844.1015625 497.698005543 718.818520408 573.711914062 499.436523438 573.711914062 c 0
 279.954939943 573.711914062 155.87890625 496.969367645 155.87890625 400.513671875 c 0
 155.87890625 299.277599589 288.919869838 226.306640625 499.436523438 226.306640625 c 0
 569.604525762 226.306640625 748.305865353 235.9806576 819.956054688 330.471679688 c 0
 836.048828125 351.732421875 844.1015625 375.080078125 844.1015625 400.513671875 c 0
573.358398438 400.008789062 m 0
 573.358398438 359.489257812 540.509765625 326.641601562 499.990234375 326.641601562 c 0
 459.470703125 326.641601562 426.622070312 359.489257812 426.622070312 400.008789062 c 0
 426.622070312 440.528320312 459.470703125 473.376953125 499.990234375 473.376953125 c 0
 540.509765625 473.376953125 573.358398438 440.528320312 573.358398438 400.008789062 c 0
EndSplineSet
Validated: 1
EndChar

StartChar: uF192F
Encoding: 989487 989487 43
Width: 1000
Flags: W
HStem: -50 95<402.453 600.344>
VStem: 136 100<242.302 826> 764 106<239.572 826>
LayerCount: 2
Fore
SplineSet
500 45 m 0
 646 45 739 160 760 316 c 1
 764 388 l 2
 764 826 l 1
 870 826 l 1
 870 387 l 1
 864 297 l 1
 851 210 807 56 653 -17 c 0
 607 -39 556 -50 499 -50 c 0
 425 -50 233 -26 156 213 c 0
 147 239 141 267 136 297 c 1
 130 389 130 389 130 826 c 1
 236 826 l 1
 236 388 l 2
 236 188 338 45 500 45 c 0
EndSplineSet
Validated: 1
EndChar

StartChar: uF1930
Encoding: 989488 989488 44
Width: 1000
Flags: W
HStem: -49.9814 99.4707<424.258 452.351 547.63 574.761> 354.488 91.042<159.645 452.351 547.63 840.336> 750.613 99.3867<424.258 452.351 547.63 574.761>
VStem: 50 109.645<326.331 354.488 445.53 474.976> 452.351 95.2793<49.5703 354.488 445.53 750.526> 840.336 109.645<326.331 354.488 445.53 474.976>
CounterMasks: 1 1c
LayerCount: 2
Fore
SplineSet
50 401.313476562 m 0
 50 651.388040328 212.374165031 850 499.272460938 850 c 0
 786.289074792 850 949.98046875 652.994940902 949.98046875 401.313476562 c 0
 949.98046875 136.775619506 774.003514343 -49.9814453125 499.272460938 -49.9814453125 c 0
 224.52921886 -49.9814453125 50 138.436994358 50 401.313476562 c 0
452.350585938 750.61328125 m 1
 424.2578125 748.172851562 l 1
 283.702497183 722.425342867 186.510074433 619.444196373 161.91015625 474.975585938 c 1
 159.513671875 445.530273438 l 1
 452.350585938 445.530273438 l 1
 452.350585938 750.61328125 l 1
547.629882812 750.526367188 m 1
 547.629882812 445.530273438 l 1
 840.466796875 445.530273438 l 1
 838.0703125 474.975585938 l 1
 827.974763588 534.278367798 780.855947311 710.573832628 574.760742188 748.172851562 c 1
 547.629882812 750.526367188 l 1
159.64453125 354.48828125 m 1
 161.91015625 326.331054688 l 1
 170.959423718 272.787910173 216.739416283 90.791212618 424.2578125 51.9677734375 c 1
 452.350585938 49.4892578125 l 1
 452.350585938 354.48828125 l 1
 159.64453125 354.48828125 l 1
547.629882812 354.48828125 m 1
 547.629882812 49.5703125 l 1
 574.760742188 51.9677734375 l 1
 712.020620125 77.5419521841 812.962168144 177.733945251 838.0703125 326.331054688 c 1
 840.3359375 354.48828125 l 1
 547.629882812 354.48828125 l 1
EndSplineSet
Validated: 1
EndChar

StartChar: uF1931
Encoding: 989489 989489 45
Width: 1000
Flags: W
HStem: -49.9814 82.5811<442.17 557.427> 208.372 95.2812<442.309 556.904> 754.707 95.293<377.099 622.073>
VStem: 131.52 105.883<435.603 626.801> 323.167 92.124<60.4212 182.017> 584.69 92.1172<60.1942 181.896> 762.582 105.879<434.544 624.682>
LayerCount: 2
Fore
SplineSet
131.51953125 530.115234375 m 0
 131.51953125 708.296957051 264.37079891 850 499.403320312 850 c 0
 734.495264838 850 868.4609375 709.475153193 868.4609375 530.115234375 c 0
 868.4609375 464.591510128 848.024029269 300.943345377 652.791015625 232.469726562 c 1
 629.868164062 226.779296875 l 1
 649.383789062 204.116210938 l 1
 663.415292429 183.830120718 676.807617188 153.55398838 676.807617188 111.916992188 c 0
 676.807617188 16.876409641 607.518506008 -49.9814453125 499.712890625 -49.9814453125 c 0
 391.683355862 -49.9814453125 323.166992188 17.6697928576 323.166992188 111.916992188 c 0
 323.166992188 125.617321602 324.071020028 165.722069776 350.596679688 204.116210938 c 1
 369.981445312 226.6328125 l 1
 346.607421875 232.469726562 l 1
 283.436189362 254.813205668 131.51953125 329.408664527 131.51953125 530.115234375 c 0
762.58203125 529.837890625 m 0
 762.58203125 655.764105362 667.286799399 754.70703125 499.56640625 754.70703125 c 0
 332.096023805 754.70703125 237.40234375 655.112837226 237.40234375 529.837890625 c 0
 237.40234375 397.992707338 339.374778885 303.653320312 499.56640625 303.653320312 c 0
 659.911424137 303.653320312 762.58203125 397.292692117 762.58203125 529.837890625 c 0
584.690429688 120.73828125 m 0
 584.690429688 170.333193524 553.482655086 208.372070312 499.859375 208.372070312 c 0
 446.172200369 208.372070312 415.291015625 169.939871708 415.291015625 120.73828125 c 0
 415.291015625 69.3064171088 448.206540569 32.599609375 499.859375 32.599609375 c 0
 551.415553191 32.599609375 584.690429688 68.8940713645 584.690429688 120.73828125 c 0
EndSplineSet
Validated: 1
EndChar

StartChar: uF1932
Encoding: 989490 989490 46
Width: 1000
Flags: W
HStem: -49.9814 95.2979<387.87 612.813> 612.826 95.2939<385.415 616.779>
VStem: 50 106.073<748.619 850> 121.069 106.074<210.92 448.259> 774.468 106.074<210.437 448.475> 845.538 106.073<748.62 850>
LayerCount: 2
Fore
SplineSet
500.202148438 -49.9814453125 m 0xc8
 268.399935824 -49.9814453125 121.069335938 108.682671041 121.069335938 330.163085938 c 0xd8
 121.069335938 395.490702151 134.060980966 473.861804768 179.958984375 546.6640625 c 1
 192.9375 563.130859375 l 1
 167.111328125 585.173828125 l 1
 94.34765625 655.112304688 50 748.03125 50 850 c 1
 156.073242188 850 l 1
 156.073242188 772.700195312 189.986328125 702.26171875 245.631835938 649.239257812 c 1
 264.104492188 635.374023438 l 1
 277.783203125 646.6328125 l 1
 335.472862744 684.534170538 408.339601394 708.120117188 500.202148438 708.120117188 c 0
 574.234445227 708.120117188 653.155692041 692.704849756 723.681640625 646.6328125 c 1
 737.44140625 635.325195312 l 1
 755.979492188 649.240234375 l 1
 811.624023438 702.263671875 845.538085938 772.700195312 845.538085938 850 c 1
 951.611328125 850 l 1xe4
 951.611328125 748.033203125 907.263671875 655.114257812 834.499023438 585.173828125 c 1
 808.673828125 563.130859375 l 1
 821.635742188 546.6640625 l 1
 852.514525224 497.749355341 880.541992188 426.757072114 880.541992188 330.163085938 c 0
 880.541992188 107.291235487 731.99611265 -49.9814453125 500.202148438 -49.9814453125 c 0xc8
774.467773438 329.885742188 m 0
 774.467773438 488.798979671 674.740460524 612.826171875 500.366210938 612.826171875 c 0
 326.103135224 612.826171875 227.143554688 487.823788336 227.143554688 329.885742188 c 0
 227.143554688 163.943391202 333.446098163 45.31640625 500.366210938 45.31640625 c 0
 667.286124285 45.31640625 774.467773438 162.898754517 774.467773438 329.885742188 c 0
EndSplineSet
Validated: 1
EndChar

StartChar: uF1933
Encoding: 989491 989491 47
Width: 1000
Flags: W
HStem: 74 95<423.23 576.77> 499 95<421.104 578.896> 670 95<379.126 617.906>
VStem: 74 106<84 463.267> 244 106<245.581 424.099> 650 106<245.166 424.3> 818 106<84 463.639>
LayerCount: 2
Fore
SplineSet
74 334 m 0
 74 575 228 765 498 765 c 0
 769 765 924 576 924 334 c 2
 924 334 924 334 924 84 c 1
 818 84 l 1
 818 334 l 0
 818 522 702 670 499 670 c 0
 295 670 180 521 180 334 c 2
 180 84 l 1
 74 84 l 1
 74 334 l 0
244 335 m 0
 244 479 337 594 500 594 c 0
 663 594 756 480 756 335 c 0
 756 182 656 74 500 74 c 0
 344 74 244 183 244 335 c 0
650 334 m 0
 650 427 595 499 500 499 c 0
 405 499 350 427 350 334 c 0
 350 238 409 169 500 169 c 0
 591 169 650 237 650 334 c 0
EndSplineSet
Validated: 1
EndChar

StartChar: uF1934
Encoding: 989492 989492 48
Width: 1000
Flags: W
HStem: 383 94<458.602 601.377> 751 94<457.394 602.285>
VStem: 272 106<208.362 447.073> 657 105<533.166 693.227>
LayerCount: 2
Fore
SplineSet
365 -45 m 1
 320 70 272 238 272 423 c 0
 272 426 273 579 303 668 c 1
 314 706 l 1
 331 749 384 845 530 845 c 0
 567 845 728 835 758 662 c 1
 761 637 762 625 762 613 c 0
 762 601 761 589 759 565 c 1
 754 534 719 383 541 383 c 0
 431 383 380 448 379 449 c 1
 378 400 l 1
 379 344 386 190 461 -9 c 1
 365 -45 l 1
657 614 m 0
 657 691 610 751 530 751 c 0
 450 751 404 690 404 614 c 0
 404 534 453 477 530 477 c 0
 607 477 657 534 657 614 c 0
EndSplineSet
Validated: 1
EndChar

StartChar: uF1935
Encoding: 989493 989493 49
Width: 1000
Flags: W
HStem: -24 241<76 182 818 924> 121 96<182 270 392.875 607.125 730 818> 755 95<389.161 609.884>
VStem: 76 106<-24 121> 135 106<371.423 599.379> 759 106<371.167 599.968> 818 106<-24 121>
LayerCount: 2
Fore
SplineSet
759 486 m 0x6c
 759 637 664 755 500 755 c 0
 335 755 241 636 241 486 c 0
 241 329 342 217 500 217 c 0
 658 217 759 328 759 486 c 0x6c
135 487 m 0
 135 689 267 850 499 850 c 0
 732 850 865 691 865 487 c 0
 865 455 864 331 773 232 c 0
 772 232 730 213 730 213 c 1
 778 217 l 1x6c
 924 217 l 1
 924 -24 l 1
 818 -24 l 1xa2
 818 121 l 1
 182 121 l 1x72
 182 -24 l 1
 76 -24 l 1
 76 217 l 1xb2
 221 217 l 1
 270 213 l 1
 227 232 l 1
 185 278 135 359 135 487 c 0
EndSplineSet
Validated: 1
EndChar

StartChar: uF1936
Encoding: 989494 989494 50
Width: 1000
Flags: W
HStem: 321 95<474.598 653.721> 447 94<482.406 646.333> 733 91<346 784>
VStem: 750 105<-14 219.202>
LayerCount: 2
Fore
SplineSet
564 321 m 0
 446 321 379 235 379 125 c 0
 379 118 l 1
 379 -14 l 1
 259 -14 l 1
 53 247 l 1
 133 310 l 1
 206 218 l 1
 284 79 l 1
 274 147 l 1
 278 186 l 1
 285 229 331 416 564 416 c 0
 749 416 855 289 855 126 c 0
 855 118 l 1
 855 -14 l 1
 750 -14 l 1
 750 118 l 1
 749 125 l 0
 749 235 682 321 564 321 c 0
215 824 m 1
 912 824 l 1
 903 779 l 1
 892 749 880 718 869 687 c 1
 803 542 691 447 564 447 c 0
 436 447 324 542 258 687 c 1
 247 718 235 749 224 779 c 1
 215 824 l 1
346 733 m 1
 376 672 l 1
 424 591 491 541 565 541 c 0
 639 541 706 591 754 672 c 1
 784 733 l 1
 346 733 l 1
EndSplineSet
Validated: 1
EndChar

StartChar: uF1937
Encoding: 989495 989495 51
Width: 1000
Flags: W
HStem: -49.9814 95.2979<375.645 623.181> 754.707 95.293<371.75 627.121>
VStem: 50 105.879<269.548 533.525> 844.102 105.879<268.988 534.077>
LayerCount: 2
Fore
SplineSet
570.244140625 538.755859375 m 1
 649.595703125 459.404296875 l 1
 728.947265625 538.755859375 l 1
 788.63671875 479.051757812 l 1
 709.28515625 399.69921875 l 1
 788.63671875 320.34765625 l 1
 728.947265625 260.659179688 l 1
 649.595703125 340.010742188 l 1
 570.244140625 260.659179688 l 1
 510.556640625 320.34765625 l 1
 589.907226562 399.69921875 l 1
 510.556640625 479.051757812 l 1
 570.244140625 538.755859375 l 1
271.342773438 538.755859375 m 1
 350.694335938 459.404296875 l 1
 430.045898438 538.755859375 l 1
 489.735351562 479.051757812 l 1
 410.383789062 399.69921875 l 1
 489.735351562 320.34765625 l 1
 430.045898438 260.659179688 l 1
 350.694335938 340.010742188 l 1
 271.342773438 260.659179688 l 1
 211.655273438 320.34765625 l 1
 291.005859375 399.69921875 l 1
 211.655273438 479.051757812 l 1
 271.342773438 538.755859375 l 1
50 401.313476562 m 0
 50 651.388040328 212.374165031 850 499.272460938 850 c 0
 786.289074792 850 949.98046875 652.994940902 949.98046875 401.313476562 c 0
 949.98046875 136.775619506 774.003514343 -49.9814453125 499.272460938 -49.9814453125 c 0
 224.52921886 -49.9814453125 50 138.436994358 50 401.313476562 c 0
844.1015625 401.036132812 m 0
 844.1015625 599.411381044 718.933662309 754.70703125 499.436523438 754.70703125 c 0
 280.075848501 754.70703125 155.87890625 598.180106772 155.87890625 401.036132812 c 0
 155.87890625 193.777491182 289.397953095 45.31640625 499.436523438 45.31640625 c 0
 709.493166164 45.31640625 844.1015625 192.483029516 844.1015625 401.036132812 c 0
EndSplineSet
Validated: 1
EndChar

StartChar: uF1938
Encoding: 989496 989496 52
Width: 1000
Flags: W
HStem: -23.8945 95.3779<490.337 785.311> 326.642 146.735<161.161 264.919> 728.535 95.3779<490.337 785.311>
VStem: 139.672 146.736<348.13 451.888> 384.232 106.104<71.4834 728.535>
LayerCount: 2
Fore
SplineSet
785.310546875 823.913085938 m 1
 785.310546875 728.53515625 l 1
 490.336914062 728.53515625 l 1
 490.336914062 71.4833984375 l 1
 785.310546875 71.4833984375 l 1
 785.310546875 -23.89453125 l 1
 384.232421875 -23.89453125 l 1
 384.232421875 823.913085938 l 1
 785.310546875 823.913085938 l 1
286.408203125 400.008789062 m 0
 286.408203125 359.489257812 253.559570312 326.641601562 213.040039062 326.641601562 c 0
 172.520507812 326.641601562 139.671875 359.489257812 139.671875 400.008789062 c 0
 139.671875 440.528320312 172.520507812 473.376953125 213.040039062 473.376953125 c 0
 253.559570312 473.376953125 286.408203125 440.528320312 286.408203125 400.008789062 c 0
EndSplineSet
Validated: 1
EndChar

StartChar: uF193B
Encoding: 989499 989499 53
Width: 1000
Flags: W
HStem: -50 95<403.273 596.781> 755 95<181.628 299.203 700.247 817.999>
VStem: 50 102<595.28 725.56> 189 109<152.344 475> 330 101<594.405 722.913> 569 101<595.28 722.719> 705 106<157.632 475> 848 102<594.405 723.744>
LayerCount: 2
Fore
SplineSet
50 660 m 0
 50 766 119 850 240 850 c 0
 362 850 431 767 431 660 c 0
 431 621 421 524 320 483 c 1
 295 476 l 1
 295 262 295 262 298 216 c 0
 300 188 335 45 500 45 c 0
 613 45 685 118 702 216 c 1
 705 261 l 1
 705 476 l 1
 680 483 l 2
 648 496 569 541 569 660 c 0
 569 766 637 850 759 850 c 0
 881 850 950 767 950 660 c 0
 950 621 939 524 838 483 c 1
 811 475 l 1
 811 262 811 262 806 197 c 1
 781 53 670 -50 500 -50 c 0
 326 -50 219 57 194 197 c 1
 189 261 l 1
 189 475 l 1
 161 483 l 2
 129 496 50 541 50 660 c 0
330 660 m 0
 330 713 297 755 240 755 c 0
 184 755 152 712 152 660 c 0
 152 604 186 564 240 564 c 0
 295 564 330 604 330 660 c 0
848 660 m 0
 848 713 816 755 759 755 c 0
 703 755 670 713 670 660 c 0
 670 604 705 564 759 564 c 0
 814 564 848 604 848 660 c 0
EndSplineSet
Validated: 1
EndChar

StartChar: uF193C
Encoding: 989500 989500 54
Width: 1000
Flags: W
VStem: 185.386 105.852<99.2002 700.818> 447.064 105.852<99.2002 700.818> 708.744 105.852<99.2002 700.818>
LayerCount: 2
Fore
SplineSet
447.064453125 99.2001953125 m 1
 447.064453125 700.818359375 l 1
 552.916015625 700.818359375 l 1
 552.916015625 99.2001953125 l 1
 447.064453125 99.2001953125 l 1
185.385742188 99.2001953125 m 1
 185.385742188 700.818359375 l 1
 291.237304688 700.818359375 l 1
 291.237304688 99.2001953125 l 1
 185.385742188 99.2001953125 l 1
708.744140625 99.2001953125 m 1
 708.744140625 700.818359375 l 1
 814.595703125 700.818359375 l 1
 814.595703125 99.2001953125 l 1
 708.744140625 99.2001953125 l 1
EndSplineSet
Validated: 1
EndChar

StartChar: uF193D
Encoding: 989501 989501 55
Width: 1000
Flags: W
HStem: 180.247 95.3291<76.0859 276.938 382.914 619.02 724.995 923.895> 523.528 95.3301<76.0859 276.938 382.914 619.02 724.995 923.895>
VStem: 276.938 105.977<-23.8945 180.247 275.576 523.528 618.858 823.429> 619.02 105.976<-16.8848 180.247 275.576 523.528 618.858 830.435>
LayerCount: 2
Fore
SplineSet
619.01953125 830.434570312 m 1
 724.995117188 830.434570312 l 1
 724.995117188 618.858398438 l 1
 923.89453125 618.858398438 l 1
 923.89453125 523.528320312 l 1
 724.995117188 523.528320312 l 1
 724.995117188 275.576171875 l 1
 923.89453125 275.576171875 l 1
 923.89453125 180.247070312 l 1
 724.995117188 180.247070312 l 1
 724.995117188 -16.884765625 l 1
 619.01953125 -16.884765625 l 1
 619.01953125 180.247070312 l 1
 382.9140625 180.247070312 l 1
 382.9140625 -23.89453125 l 1
 276.9375 -23.89453125 l 1
 276.9375 180.247070312 l 1
 76.0859375 180.247070312 l 1
 76.0859375 275.576171875 l 1
 276.9375 275.576171875 l 1
 276.9375 523.528320312 l 1
 76.0859375 523.528320312 l 1
 76.0859375 618.858398438 l 1
 276.9375 618.858398438 l 1
 276.9375 823.428710938 l 1
 382.9140625 823.428710938 l 1
 382.9140625 618.858398438 l 1
 619.01953125 618.858398438 l 1
 619.01953125 830.434570312 l 1
382.9140625 523.528320312 m 1
 382.9140625 275.576171875 l 1
 619.01953125 275.576171875 l 1
 619.01953125 523.528320312 l 1
 382.9140625 523.528320312 l 1
EndSplineSet
Validated: 1
EndChar

StartChar: uF193E
Encoding: 989502 989502 56
Width: 1000
Flags: W
HStem: -49.9814 96.1751<418.423 673.153> 194.372 96.3446<523.575 618.196> 497.082 96.1901<504.3 696.039> 753.821 96.1786<461.76 768.395>
VStem: 92.4511 105.162<271.766 512.278> 349.144 105.856<343.332 451.801> 799.558 105.855<168.972 389.712>
LayerCount: 2
Fore
SplineSet
595.722138331 497.082235167 m 0
 580.733971549 497.082235167 455.955776397 494.133007004 455 395.944335938 c 0
 455 317.904987448 566.133152631 291.223183165 618.196289062 290.716796875 c 1
 619.682617188 194.5546875 l 1
 616.482351068 194.449134599 612.81749792 194.37214713 608.723349325 194.37214713 c 0
 486.441474173 194.37214713 349.143554688 261.534437678 349.143554688 394.807617188 c 0
 349.143554688 508.071047219 443.641048347 593.272297945 594.139269961 593.272297945 c 0
 789.657030396 593.272297945 905.412909541 466.048794139 905.412909541 284.803937683 c 0
 905.412909541 56.4287524832 752.289061091 -49.9814206955 554.817697031 -49.9814206955 c 0
 196.83099408 -49.9814206955 92.4510742926 226.844820654 92.4510742926 394.530114088 c 0
 92.4510742926 652.316082751 296.943661132 849.999870629 610.573245049 849.999870629 c 0
 637.275602408 849.999870629 750.519603067 849.760969142 874.64453125 799.661132812 c 1
 837.811523438 708.08984375 l 1
 805.136505126 721.679172499 721.748704755 753.821302812 611.918365106 753.821302812 c 0
 345.54538402 753.821302812 197.613219511 582.778086114 197.613219511 394.797371975 c 0
 197.613219511 345.164947759 207.925791607 294.351785304 229.09375 245.194335938 c 0
 279.236404244 128.744390469 376.768016175 47.7145359031 550.619140625 46.2109375 c 0
 551.913754293 46.1995211537 553.214143515 46.1936919041 554.519970831 46.1936919041 c 0
 659.474271269 46.1936919041 799.558366388 83.8503376914 799.558366388 284.89201804 c 0
 799.558366388 435.553291751 707.007517733 497.082235167 595.722138331 497.082235167 c 0
EndSplineSet
Validated: 1
EndChar

StartChar: uF193F
Encoding: 989503 989503 57
Width: 1000
Flags: W
VStem: 449.51 105.853<-51.0732 430.216 560.925 849.185>
LayerCount: 2
Fore
SplineSet
449.509765625 849.184570312 m 1
 555.362304688 849.184570312 l 1
 555.362304688 559.21875 l 1
 794.794921875 308.384765625 l 1
 722.025390625 238.924804688 l 1
 555.362304688 430.215820312 l 1
 555.362304688 -51.0732421875 l 1
 449.509765625 -51.0732421875 l 1
 449.509765625 431.126953125 l 1
 281.21875 238.924804688 l 1
 208.450195312 308.384765625 l 1
 449.509765625 560.924804688 l 1
 449.509765625 849.184570312 l 1
EndSplineSet
Validated: 1
EndChar

StartChar: uF1940
Encoding: 989504 989504 58
Width: 1000
Flags: W
HStem: 755 95<387.2 611.844>
VStem: 130 106<-24 593.655> 764 106<-24 591.384>
LayerCount: 2
Fore
SplineSet
130 480 m 0
 130 686 264 850 499 850 c 0
 735 850 870 688 870 480 c 0
 870 -24 l 1
 764 -24 l 1
 764 480 l 0
 764 634 668 755 500 755 c 0
 331 755 236 633 236 480 c 0
 236 -24 l 1
 130 -24 l 1
 130 480 l 0
EndSplineSet
Validated: 1
EndChar

StartChar: uF1941
Encoding: 989505 989505 59
Width: 1000
Flags: W
VStem: 447.878 105.852<100.948 849.185>
LayerCount: 2
Fore
SplineSet
447.877929688 849.184570312 m 1
 553.729492188 849.184570312 l 1
 553.729492188 100.89453125 l 1
 720.393554688 297.265625 l 1
 793.163085938 227.8046875 l 1
 499.990234375 -79.328125 l 1
 206.817382812 227.8046875 l 1
 279.586914062 297.265625 l 1
 447.877929688 100.948242188 l 1
 447.877929688 849.184570312 l 1
EndSplineSet
Validated: 1
EndChar

StartChar: uF1942
Encoding: 989506 989506 60
Width: 1000
Flags: W
HStem: 148.928 95.4434<209.437 790.544> 554.017 95.4434<209.437 790.544>
VStem: 76.0859 105.977<273.317 525.071> 817.918 105.977<273.317 525.071>
LayerCount: 2
Fore
SplineSet
265.536132812 649.459960938 m 2
 734.444335938 649.459960938 l 2
 839.07421875 649.459960938 923.89453125 564.58203125 923.89453125 459.89453125 c 2
 923.89453125 338.493164062 l 2
 923.89453125 233.805664062 839.07421875 148.927734375 734.444335938 148.927734375 c 2
 265.536132812 148.927734375 l 2
 160.907226562 148.927734375 76.0859375 233.805664062 76.0859375 338.493164062 c 2
 76.0859375 459.89453125 l 2
 76.0859375 564.58203125 160.907226562 649.459960938 265.536132812 649.459960938 c 2
265.6171875 554.016601562 m 2
 219.470703125 554.016601562 182.0625 516.583007812 182.0625 470.409179688 c 2
 182.0625 327.978515625 l 2
 182.0625 281.805664062 219.470703125 244.37109375 265.6171875 244.37109375 c 2
 734.36328125 244.37109375 l 2
 780.509765625 244.37109375 817.91796875 281.805664062 817.91796875 327.978515625 c 2
 817.91796875 470.409179688 l 2
 817.91796875 516.583007812 780.509765625 554.016601562 734.36328125 554.016601562 c 2
 265.6171875 554.016601562 l 2
EndSplineSet
Validated: 1
EndChar

StartChar: uF1943
Encoding: 989507 989507 61
Width: 1000
Flags: W
HStem: 51.6484 95.3467<267.661 665.788> 365.793 95.3467<552.036 666.541>
VStem: 161.807 105.854<146.995 748.367> 446.184 105.853<461.14 748.367> 732.322 105.852<202.348 309.897>
LayerCount: 2
Fore
SplineSet
838.173828125 256.986328125 m 0
 838.173828125 98.3681227999 656.746572844 51.7365196922 573.848632812 51.666015625 c 2
 161.806640625 51.6484375 l 1
 161.806640625 748.3671875 l 1
 267.661132812 748.3671875 l 1
 267.661132812 146.995117188 l 1
 552.036132812 146.995117188 l 2
 588.810046677 147.019938828 682.225888972 153.178677625 719.66796875 212.599609375 c 0
 728.099609375 225.984375 732.322265625 240.688476562 732.322265625 256.708984375 c 0
 732.322265625 317.724246034 667.052307853 365.715335179 552.036132812 365.79296875 c 2
 446.18359375 365.79296875 l 1
 446.18359375 748.3671875 l 1
 552.036132812 748.3671875 l 1
 552.036132812 461.139648438 l 1
 734.648699962 460.992498908 838.173828125 371.129516574 838.173828125 256.986328125 c 0
EndSplineSet
Validated: 1
EndChar

StartChar: uF1944
Encoding: 989508 989508 62
Width: 1000
Flags: W
HStem: -49.9814 95.1826<438.204 560.146> 267.327 95.1826<438.204 560.146>
VStem: 292.93 101.542<89.9663 222.563> 446.188 105.976<416.313 850> 603.879 101.542<89.9663 222.563>
CounterMasks: 1 38
LayerCount: 2
Fore
SplineSet
446.1875 416.313476562 m 1
 446.1875 850 l 1
 552.163085938 850 l 1
 552.163085938 416.313476562 l 1
 446.1875 416.313476562 l 1
499.174804688 362.509765625 m 0
 613.075195312 362.509765625 705.420898438 270.165039062 705.420898438 156.264648438 c 0
 705.420898438 42.3642578125 613.075195312 -49.9814453125 499.174804688 -49.9814453125 c 0
 385.274414062 -49.9814453125 292.9296875 42.3642578125 292.9296875 156.264648438 c 0
 292.9296875 270.165039062 385.274414062 362.509765625 499.174804688 362.509765625 c 0
499.174804688 267.327148438 m 0
 441.345703125 267.327148438 394.471679688 217.600585938 394.471679688 156.264648438 c 0
 394.471679688 94.9287109375 441.345703125 45.201171875 499.174804688 45.201171875 c 0
 557.004882812 45.201171875 603.87890625 94.9287109375 603.87890625 156.264648438 c 0
 603.87890625 217.600585938 557.004882812 267.327148438 499.174804688 267.327148438 c 0
EndSplineSet
Validated: 1
EndChar

StartChar: uF1946
Encoding: 989510 989510 63
Width: 1000
Flags: W
HStem: 164 95<640.593 787.128> 541 95<641.381 787.482>
VStem: 477 106<324.626 482.345> 844 106<318.693 479.623>
LayerCount: 2
Fore
SplineSet
844 400 m 0
 844 479 796 541 713 541 c 0
 630 541 583 478 583 400 c 0
 583 318 634 259 713 259 c 0
 793 259 844 317 844 400 c 0
713 636 m 0
 733 636 950 631 950 401 c 0
 949 361 934 164 714 164 c 0
 661 164 477 175 308 293 c 0
 214 359 133 448 52 565 c 1
 134 622 l 1
 256 445 371 341 527 291 c 1
 506 310 477 346 477 400 c 0
 477 535 565 636 713 636 c 0
EndSplineSet
Validated: 1
EndChar

StartChar: uF1947
Encoding: 989511 989511 64
Width: 1000
Flags: W
HStem: -23.8945 95.3467<236.388 764.343> 294.93 95.3467<236.388 764.343>
VStem: 129.89 106.498<71.4521 294.93 390.276 823.913> 764.343 105.748<71.4521 294.93 390.276 823.913>
LayerCount: 2
Fore
SplineSet
130.655273438 823.913085938 m 1
 236.387695312 823.913085938 l 1
 236.387695312 390.276367188 l 1
 764.342773438 390.276367188 l 1
 764.342773438 823.913085938 l 1
 870.090820312 823.913085938 l 1
 870.090820312 -23.89453125 l 1
 129.889648438 -23.89453125 l 1
 130.655273438 823.913085938 l 1
236.387695312 294.9296875 m 1
 236.387695312 71.4521484375 l 1
 764.342773438 71.4521484375 l 1
 764.342773438 294.9296875 l 1
 236.387695312 294.9296875 l 1
EndSplineSet
Validated: 1
EndChar

StartChar: uF1948
Encoding: 989512 989512 65
Width: 1000
Flags: W
HStem: 33.1689 95.3467<238.999 438.679 550.297 760.976> 353.354 93.3125<453.225 546.76> 671.503 95.3467<238.999 449.684 561.303 760.976>
VStem: 133.15 105.849<128.516 671.503> 760.976 105.854<128.516 671.503>
LayerCount: 2
Fore
SplineSet
561.302734375 671.502929688 m 1
 453.224609375 446.666992188 l 1
 703.233398438 446.666992188 l 1
 550.296875 128.515625 l 1
 760.975585938 128.515625 l 1
 760.975585938 671.502929688 l 1
 561.302734375 671.502929688 l 1
238.999023438 671.502929688 m 1
 238.999023438 128.515625 l 1
 438.678710938 128.515625 l 1
 546.759765625 353.354492188 l 1
 296.748046875 353.354492188 l 1
 449.68359375 671.502929688 l 1
 238.999023438 671.502929688 l 1
133.150390625 766.849609375 m 1
 866.830078125 766.849609375 l 1
 866.830078125 33.1689453125 l 1
 133.150390625 33.1689453125 l 1
 133.150390625 766.849609375 l 1
EndSplineSet
Validated: 1
EndChar

StartChar: uF1949
Encoding: 989513 989513 66
Width: 1000
Flags: W
HStem: 342 95<482.925 646.632> 755 95<481.715 650.607>
VStem: 300 106<113.167 262.375 511.596 679.956> 724 105<-14 262.839 511.691 680.178>
LayerCount: 2
Fore
SplineSet
724 596 m 0
 724 685 666 755 565 755 c 0
 463 755 406 684 406 596 c 0
 406 504 467 437 565 437 c 0
 662 437 724 503 724 596 c 0
300 596 m 0
 300 738 396 850 564 850 c 0
 733 850 829 738 829 596 c 0
 829 548 818 473 758 414 c 1
 758 414 740 399 740 400 c 1
 708 390 l 1
 740 378 l 1
 758 363 l 1
 781 339 829 279 829 173 c 2
 829 -14 l 1
 724 -14 l 1
 724 173 l 2
 724 267 666 342 565 342 c 0
 463 342 406 267 406 173 c 2
 406 -14 l 1
 286 -14 l 1
 81 246 l 1
 161 309 l 1
 234 216 l 1
 312 79 l 1
 300 161 l 1
 300 173 l 2
 300 221 311 300 372 363 c 1
 389 377 l 1
 390 377 422 387 422 387 c 1
 390 399 l 1
 371 414 l 1
 340 444 300 502 300 596 c 0
EndSplineSet
Validated: 1
EndChar

StartChar: uF194B
Encoding: 989515 989515 67
Width: 1000
Flags: W
LayerCount: 2
Fore
SplineSet
303.09765625 850 m 1
 495.916015625 658.561523438 l 1
 688.728515625 850 l 1
 759.609375 778.612304688 l 1
 495.916015625 516.799804688 l 1
 232.215820312 778.612304688 l 1
 303.09765625 850 l 1
303.09765625 551.935546875 m 1
 495.916015625 360.497070312 l 1
 688.728515625 551.935546875 l 1
 759.609375 480.548828125 l 1
 495.916015625 218.735351562 l 1
 232.215820312 480.548828125 l 1
 303.09765625 551.935546875 l 1
303.09765625 253.872070312 m 1
 495.916015625 62.43359375 l 1
 688.728515625 253.872070312 l 1
 759.609375 182.484375 l 1
 495.916015625 -79.328125 l 1
 232.215820312 182.484375 l 1
 303.09765625 253.872070312 l 1
EndSplineSet
Validated: 1
EndChar

StartChar: uF194C
Encoding: 989516 989516 68
Width: 1000
Flags: W
HStem: 438 96<474.102 653.721>
VStem: 273 106<108.091 336.829> 511 106<630 850> 750 105<-14 336.527>
LayerCount: 2
Fore
SplineSet
376 606 m 1
 288 555 l 1
 178 747 l 1
 266 798 l 1
 376 606 l 1
862 798 m 1
 950 747 l 1
 840 555 l 1
 752 606 l 1
 862 798 l 1
511 630 m 1
 511 850 l 1
 617 850 l 1
 617 630 l 1
 511 630 l 1
273 243 m 0
 273 405 378 534 564 534 c 0
 749 534 855 406 855 243 c 0
 855 -14 l 1
 750 -14 l 1
 749 243 l 0
 749 352 682 438 564 438 c 0
 446 438 379 352 379 243 c 0
 379 -14 l 1
 259 -14 l 1
 53 246 l 1
 133 309 l 1
 206 217 l 1
 284 79 l 1
 273 159 l 1
 273 243 l 0
EndSplineSet
Validated: 1
EndChar

StartChar: uF194D
Encoding: 989517 989517 69
Width: 1000
Flags: W
HStem: -23.8945 95.3779<266.647 848.896>
VStem: 160.867 105.78<71.4834 823.913>
LayerCount: 2
Fore
SplineSet
160.8671875 823.913085938 m 1
 266.647460938 823.913085938 l 1
 266.647460938 71.4833984375 l 1
 848.896484375 71.4833984375 l 1
 848.896484375 -23.89453125 l 1
 160.8671875 -23.89453125 l 1
 160.8671875 823.913085938 l 1
EndSplineSet
Validated: 1
EndChar

StartChar: uF1950
Encoding: 989520 989520 70
Width: 1000
Flags: W
HStem: -23.8945 95.3779<252.17 446.171 552.179 746.181> 728.535 95.3779<252.17 446.171 552.179 746.181>
VStem: 446.171 106.008<71.4834 728.535>
LayerCount: 2
Fore
SplineSet
252.169921875 823.913085938 m 1
 746.180664062 823.913085938 l 1
 746.180664062 728.53515625 l 1
 552.178710938 728.53515625 l 1
 552.178710938 71.4833984375 l 1
 746.180664062 71.4833984375 l 1
 746.180664062 -23.89453125 l 1
 252.169921875 -23.89453125 l 1
 252.169921875 71.4833984375 l 1
 446.170898438 71.4833984375 l 1
 446.170898438 728.53515625 l 1
 252.169921875 728.53515625 l 1
 252.169921875 823.913085938 l 1
EndSplineSet
Validated: 1
EndChar

StartChar: uF1951
Encoding: 989521 989521 71
Width: 1000
Flags: W
HStem: 59.6504 97.7188<293.75 447.972 553.824 708.046> 260.027 97.7188<293.75 447.972 553.824 708.046> 460.404 97.7188<293.75 447.972 553.824 708.046> 703.264 146.736<276.679 379.288 620.693 723.303>
VStem: 255.431 145.105<724.755 828.509> 447.972 105.853<-52.0674 59.6504 157.369 260.027 357.746 460.404 558.123 669.841> 599.444 145.106<724.755 828.509>
LayerCount: 2
Fore
SplineSet
447.971679688 669.840820312 m 1
 553.82421875 669.840820312 l 1
 553.82421875 558.123046875 l 1
 708.045898438 558.123046875 l 1
 708.045898438 460.404296875 l 1
 553.82421875 460.404296875 l 1
 553.82421875 357.74609375 l 1
 708.045898438 357.74609375 l 1
 708.045898438 260.02734375 l 1
 553.82421875 260.02734375 l 1
 553.82421875 157.369140625 l 1
 708.045898438 157.369140625 l 1
 708.045898438 59.650390625 l 1
 553.82421875 59.650390625 l 1
 553.82421875 -52.0673828125 l 1
 447.971679688 -52.0673828125 l 1
 447.971679688 59.650390625 l 1
 293.75 59.650390625 l 1
 293.75 157.369140625 l 1
 447.971679688 157.369140625 l 1
 447.971679688 260.02734375 l 1
 293.75 260.02734375 l 1
 293.75 357.74609375 l 1
 447.971679688 357.74609375 l 1
 447.971679688 460.404296875 l 1
 293.75 460.404296875 l 1
 293.75 558.123046875 l 1
 447.971679688 558.123046875 l 1
 447.971679688 669.840820312 l 1
599.444335938 776.631835938 m 0
 599.444335938 817.146484375 631.921875 850 671.998046875 850 c 0
 712.073242188 850 744.55078125 817.146484375 744.55078125 776.631835938 c 0
 744.55078125 736.1171875 712.073242188 703.263671875 671.998046875 703.263671875 c 0
 631.921875 703.263671875 599.444335938 736.1171875 599.444335938 776.631835938 c 0
255.430664062 776.631835938 m 0
 255.430664062 817.146484375 287.908203125 850 327.983398438 850 c 0
 368.05859375 850 400.536132812 817.146484375 400.536132812 776.631835938 c 0
 400.536132812 736.1171875 368.05859375 703.263671875 327.983398438 703.263671875 c 0
 287.908203125 703.263671875 255.430664062 736.1171875 255.430664062 776.631835938 c 0
EndSplineSet
Validated: 1
EndChar

StartChar: uF1952
Encoding: 989522 989522 72
Width: 1000
Flags: W
HStem: 207.622 95.2285<182.159 622.173> 325.011 146.736<847.561 951.316>
VStem: 76.0859 106.073<302.851 607.07> 622.173 106.073<302.851 607.07> 826.07 146.736<346.5 450.258>
LayerCount: 2
Fore
SplineSet
76.0859375 607.0703125 m 1
 182.159179688 607.0703125 l 1
 182.159179688 302.850585938 l 1
 622.172851562 302.850585938 l 1
 622.172851562 607.0703125 l 1
 728.24609375 607.0703125 l 1
 728.24609375 207.622070312 l 1
 76.0859375 207.622070312 l 1
 76.0859375 607.0703125 l 1
826.0703125 398.37890625 m 0
 826.0703125 438.8984375 858.923828125 471.747070312 899.438476562 471.747070312 c 0
 939.953125 471.747070312 972.806640625 438.8984375 972.806640625 398.37890625 c 0
 972.806640625 357.859375 939.953125 325.010742188 899.438476562 325.010742188 c 0
 858.923828125 325.010742188 826.0703125 357.859375 826.0703125 398.37890625 c 0
EndSplineSet
Validated: 1
EndChar

StartChar: uF1953
Encoding: 989523 989523 73
Width: 1000
Flags: W
HStem: -23.8945 95.3467<236.628 765.745>
VStem: 129.89 106.738<71.4521 823.913> 765.745 105.977<71.4521 823.913>
LayerCount: 2
Fore
SplineSet
130.65234375 823.913085938 m 1
 236.627929688 823.913085938 l 1
 236.627929688 71.4521484375 l 1
 765.745117188 71.4521484375 l 1
 765.745117188 823.913085938 l 1
 871.721679688 823.913085938 l 1
 871.721679688 -23.89453125 l 1
 129.889648438 -23.89453125 l 1
 130.65234375 823.913085938 l 1
EndSplineSet
Validated: 1
EndChar

StartChar: uF1954
Encoding: 989524 989524 74
Width: 1000
Flags: W
HStem: 165.231 95.3467<394.666 604.231>
LayerCount: 2
Fore
SplineSet
805.397460938 543.484375 m 1
 907.590820312 520.071289062 l 1
 890.846679688 458.98046875 l 1
 826.36328125 286.354492188 675.388671875 165.231445312 499.452148438 165.231445312 c 0
 323.5 165.231445312 172.541015625 286.354492188 108.059570312 458.98046875 c 1
 92.390625 516.110351562 l 1
 194.518554688 539.505859375 l 1
 205.654296875 496.087890625 l 1
 254.061523438 357.684570312 367.374023438 260.578125 499.452148438 260.578125 c 0
 631.514648438 260.578125 744.827148438 357.684570312 793.234375 496.087890625 c 1
 805.397460938 543.484375 l 1
EndSplineSet
Validated: 1
EndChar

StartChar: uF1955
Encoding: 989525 989525 75
Width: 1000
Flags: W
HStem: -9.60645 74.1387<219.945 781.666> 93.3203 74.0977<408.444 594.714> 217.398 73.1589<463.847 537.207> 483.297 74.0918<407.606 592.661> 588.524 116.551<468.451 542.628> 733.855 74.1387<219.945 781.666>
VStem: 145.81 74.1357<64.5322 733.855> 254.449 74.1729<243.762 406.962> 370.506 73.0459<309.967 345.419> 468.451 74.1768<588.524 705.075> 557.03 72.8828<310.679 343.387> 672.201 74.1992<243.426 407.3> 781.666 74.1357<64.5322 733.855>
LayerCount: 2
Fore
SplineSet
629.913085938 342.064453125 m 1
 616.744900551 272.526847878 567.705641131 217.398284815 500.546074839 217.398284815 c 0
 416.561960014 217.398284815 380.009299123 290.797184413 370.505859375 344.203125 c 1
 394.85546875 348.525390625 419.204101562 352.850585938 443.551757812 357.174804688 c 1
 448.90192649 327.107802771 468.618267012 290.557197678 501.479108799 290.557197678 c 0
 525.059571435 290.557197678 549.718458569 317.209944651 557.030273438 355.8359375 c 1
 629.913085938 342.064453125 l 1
686.596679688 688.749023438 m 1
 747.286132812 646.145507812 l 1
 676.284179688 545.201171875 l 1
 615.590820312 587.805664062 l 1
 686.596679688 688.749023438 l 1
315.014648438 688.749023438 m 1
 386.015625 587.815429688 l 1
 325.327148438 545.208984375 l 1
 254.325195312 646.142578125 l 1
 315.014648438 688.749023438 l 1
468.451171875 705.075195312 m 1
 542.627929688 705.075195312 l 1
 542.627929688 588.524414062 l 1
 468.451171875 588.524414062 l 1
 468.451171875 705.075195312 l 1
672.201171875 325.91796875 m 0
 672.201171875 415.555819045 611.747312969 483.29687517 500.083075689 483.29687517 c 0
 388.243644041 483.294942882 328.622070312 414.66113498 328.622070312 325.915039062 c 0
 328.622070312 230.902008208 394.720308419 167.41796875 500.079101562 167.41796875 c 0
 605.293790322 167.41796875 672.201171875 230.093821182 672.201171875 325.91796875 c 0
254.44921875 325.932617188 m 0
 254.44921875 453.950873209 345.613678307 557.388671875 500.0859375 557.388671875 c 0
 654.621035874 557.35485213 746.400390625 454.667699264 746.400390625 325.91796875 c 0
 746.400390625 191.387236794 648.680454312 93.3203125 500.103515625 93.3203125 c 0
 351.483782718 93.3203125 254.44921875 192.149723968 254.44921875 325.932617188 c 0
219.9453125 733.85546875 m 1
 219.9453125 64.5322265625 l 1
 781.666015625 64.5322265625 l 1
 781.666015625 733.85546875 l 1
 219.9453125 733.85546875 l 1
145.809570312 807.994140625 m 1
 855.801757812 807.994140625 l 1
 855.801757812 -9.6064453125 l 1
 145.809570312 -9.6064453125 l 1
 145.809570312 807.994140625 l 1
EndSplineSet
Validated: 1
EndChar

StartChar: uF1956
Encoding: 989526 989526 76
Width: 1000
Flags: W
HStem: 178.344 95.3457<210.729 789.253> 526.328 95.3467<210.729 789.253>
LayerCount: 2
Fore
SplineSet
210.728515625 273.689453125 m 1
 789.252929688 273.689453125 l 1
 789.252929688 178.34375 l 1
 210.728515625 178.34375 l 1
 210.728515625 273.689453125 l 1
210.728515625 621.674804688 m 1
 789.252929688 621.674804688 l 1
 789.252929688 526.328125 l 1
 210.728515625 526.328125 l 1
 210.728515625 621.674804688 l 1
EndSplineSet
Validated: 1
EndChar

StartChar: uF1957
Encoding: 989527 989527 77
Width: 1000
Flags: W
HStem: -12.9053 146.735<448.111 551.869>
VStem: 426.622 146.736<8.58398 112.342> 447.066 105.85<266.953 803.597>
LayerCount: 2
Fore
SplineSet
805.317382812 600.708007812 m 1x80
 895.008789062 549.608398438 l 1
 700.610351562 208.392578125 l 1
 610.920898438 259.489257812 l 1
 805.317382812 600.708007812 l 1x80
194.666015625 599.793945312 m 1
 389.061523438 258.578125 l 1
 299.372070312 207.478515625 l 1
 104.973632812 548.697265625 l 1
 194.666015625 599.793945312 l 1
447.06640625 803.596679688 m 1xa0
 552.916015625 803.596679688 l 1
 552.916015625 266.953125 l 1
 447.06640625 266.953125 l 1
 447.06640625 803.596679688 l 1xa0
573.358398438 60.462890625 m 0xc0
 573.358398438 19.943359375 540.509765625 -12.9052734375 499.990234375 -12.9052734375 c 0
 459.470703125 -12.9052734375 426.622070312 19.943359375 426.622070312 60.462890625 c 0
 426.622070312 100.983398438 459.470703125 133.830078125 499.990234375 133.830078125 c 0
 540.509765625 133.830078125 573.358398438 100.983398438 573.358398438 60.462890625 c 0xc0
EndSplineSet
Validated: 1
EndChar

StartChar: uF1958
Encoding: 989528 989528 78
Width: 1000
Flags: W
HStem: 192.948 401.078<76.0859 182.062 292.783 398.759 601.222 707.197 817.918 923.895> 498.403 95.623<182.062 292.783 398.759 601.222 707.197 817.918>
VStem: 76.0859 105.977<192.948 498.403> 292.783 105.976<192.948 498.403> 601.222 105.976<192.948 498.403> 817.918 105.977<192.948 498.403>
LayerCount: 2
Fore
SplineSet
76.0859375 594.026367188 m 1xbc
 923.89453125 594.026367188 l 1
 923.89453125 192.948242188 l 1
 817.91796875 192.948242188 l 1xbc
 817.91796875 498.403320312 l 1
 707.197265625 498.403320312 l 1x7c
 707.197265625 192.948242188 l 1
 601.221679688 192.948242188 l 1xbc
 601.221679688 498.403320312 l 1
 398.758789062 498.403320312 l 1x7c
 398.758789062 192.948242188 l 1
 292.783203125 192.948242188 l 1xbc
 292.783203125 498.403320312 l 1
 182.0625 498.403320312 l 1x7c
 182.0625 192.948242188 l 1
 76.0859375 192.948242188 l 1
 76.0859375 594.026367188 l 1xbc
EndSplineSet
Validated: 1
EndChar

StartChar: uF1959
Encoding: 989529 989529 79
Width: 1000
Flags: W
HStem: -50.3779 146.736<430.505 533.11> 753.38 95.3585<381.828 605.086>
VStem: 409.255 145.105<-28.8876 74.8673> 429.014 105.855<209.555 342.665> 666.082 102.946<554.006 699.85>
LayerCount: 2
Fore
SplineSet
409.254882812 22.990234375 m 0xe8
 409.254882812 63.5048828125 441.737304688 96.3583984375 481.807617188 96.3583984375 c 0
 521.877929688 96.3583984375 554.360351562 63.5048828125 554.360351562 22.990234375 c 0
 554.360351562 -17.5263671875 521.877929688 -50.3779296875 481.807617188 -50.3779296875 c 0
 441.737304688 -50.3779296875 409.254882812 -17.5263671875 409.254882812 22.990234375 c 0xe8
273.572265625 790.556640625 m 1
 306.546587652 808.494829075 393.140940978 848.738135546 506.354692077 848.738135546 c 0
 669.172945429 848.738135546 769.027393034 762.582692186 769.027393034 630.243461121 c 0
 769.027393034 456.690325841 610.878870903 371.529551911 534.869140625 332.694335938 c 1
 534.869140625 209.5546875 l 1
 429.013671875 209.5546875 l 1
 429.013671875 396.39453125 l 1xd8
 665.213465305 492.021659874 666.081825589 597.833097827 666.081825589 631.659296254 c 0
 666.081825589 741.696390785 552.351301933 753.379637598 504.053670137 753.379637598 c 0
 451.047842745 753.379637598 383.184718258 739.693437541 320.86328125 704.75390625 c 1
 273.572265625 790.556640625 l 1
EndSplineSet
Validated: 1
EndChar

StartChar: uF195B
Encoding: 989531 989531 80
Width: 1000
Flags: W
HStem: 728.535 95.3779<183.497 447.915 553.696 818.114>
VStem: 77.7168 105.78<-23.8945 728.535> 447.915 105.781<-23.8945 728.535> 818.114 105.78<-23.8945 728.535>
LayerCount: 2
Fore
SplineSet
77.716796875 823.913085938 m 1
 923.89453125 823.913085938 l 1
 923.89453125 -23.89453125 l 1
 818.114257812 -23.89453125 l 1
 818.114257812 728.53515625 l 1
 553.696289062 728.53515625 l 1
 553.696289062 -23.89453125 l 1
 447.915039062 -23.89453125 l 1
 447.915039062 728.53515625 l 1
 183.497070312 728.53515625 l 1
 183.497070312 -23.89453125 l 1
 77.716796875 -23.89453125 l 1
 77.716796875 823.913085938 l 1
EndSplineSet
Validated: 1
EndChar

StartChar: uF195C
Encoding: 989532 989532 81
Width: 1000
Flags: W
HStem: -49.9814 95.2979<375.645 623.181> 158.71 95.3789<425.983 573.478> 545.93 95.3789<425.387 574.097> 754.707 95.293<371.75 627.121>
VStem: 50 105.879<269.548 533.525> 258.691 105.829<318.452 484.458> 635.46 105.83<318.153 484.744> 844.102 105.879<268.988 534.077>
LayerCount: 2
Fore
SplineSet
258.69140625 400.709960938 m 0
 258.69140625 534.900153243 345.862904742 641.30859375 499.598632812 641.30859375 c 0
 653.470404089 641.30859375 741.290039062 535.702811485 741.290039062 400.709960938 c 0
 741.290039062 258.895145797 646.952579972 158.709960938 499.598632812 158.709960938 c 0
 352.279237912 158.709960938 258.69140625 259.761437064 258.69140625 400.709960938 c 0
635.459960938 400.432617188 m 0
 635.459960938 482.044536693 586.16393949 545.9296875 499.778320312 545.9296875 c 0
 413.368600001 545.9296875 364.520507812 481.469470981 364.520507812 400.432617188 c 0
 364.520507812 315.109083745 417.143401269 254.088867188 499.778320312 254.088867188 c 0
 582.343809965 254.088867188 635.459960938 314.512379783 635.459960938 400.432617188 c 0
50 401.313476562 m 0
 50 651.388040328 212.374165031 850 499.272460938 850 c 0
 786.289074792 850 949.98046875 652.994940902 949.98046875 401.313476562 c 0
 949.98046875 136.775619506 774.003514343 -49.9814453125 499.272460938 -49.9814453125 c 0
 224.52921886 -49.9814453125 50 138.436994358 50 401.313476562 c 0
844.1015625 401.036132812 m 0
 844.1015625 599.411381044 718.933662309 754.70703125 499.436523438 754.70703125 c 0
 280.075848501 754.70703125 155.87890625 598.180106772 155.87890625 401.036132812 c 0
 155.87890625 193.777491182 289.397953095 45.31640625 499.436523438 45.31640625 c 0
 709.493166164 45.31640625 844.1015625 192.483029516 844.1015625 401.036132812 c 0
EndSplineSet
Validated: 1
EndChar

StartChar: uF195D
Encoding: 989533 989533 82
Width: 1000
Flags: W
HStem: 207.622 94.5635<77.7168 379.341 620.64 923.895>
VStem: 447.817 105.977<383.705 672.286>
LayerCount: 2
Fore
SplineSet
447.817382812 383.705078125 m 1
 447.817382812 672.286132812 l 1
 553.793945312 672.286132812 l 1
 553.793945312 383.705078125 l 1
 447.817382812 383.705078125 l 1
620.639648438 207.622070312 m 1
 620.639648438 302.185546875 l 1
 923.89453125 302.185546875 l 1
 923.89453125 207.622070312 l 1
 620.639648438 207.622070312 l 1
77.716796875 207.622070312 m 1
 77.716796875 302.185546875 l 1
 379.340820312 302.185546875 l 1
 379.340820312 207.622070312 l 1
 77.716796875 207.622070312 l 1
EndSplineSet
Validated: 1
EndChar

StartChar: uF195E
Encoding: 989534 989534 83
Width: 1000
Flags: W
HStem: -44 96<418.649 580.37> 377 93<423.882 582.235>
VStem: 243 104<125.119 303.176> 654 103<127.878 301.03>
LayerCount: 2
Fore
SplineSet
459 850 m 1
 541 793 l 1
 464 683 406 567 374 430 c 1
 370 409 l 1
 391 429 l 1
 427 455 471 470 527 470 c 0
 583 470 757 451 757 210 c 0
 757 194 756 178 755 160 c 1
 734 43 643 -44 500 -44 c 0
 464 -44 280 -34 246 160 c 1
 244 183 243 206 243 229 c 0
 243 499 373 728 459 850 c 1
654 215 m 0
 654 306 598 377 500 377 c 0
 402 377 347 305 347 215 c 0
 347 119 406 52 500 52 c 0
 593 52 654 119 654 215 c 0
EndSplineSet
Validated: 1
EndChar

StartChar: uF195F
Encoding: 989535 989535 84
Width: 1000
Flags: W
HStem: -23.8945 95.3779<216.301 510.073> 326.642 146.735<736.453 839.059> 728.535 95.3779<216.301 510.073>
VStem: 510.073 105.676<71.4834 728.535> 715.203 145.105<348.132 451.886>
LayerCount: 2
Fore
SplineSet
216.30078125 823.913085938 m 1
 615.749023438 823.913085938 l 1
 615.749023438 -23.89453125 l 1
 216.30078125 -23.89453125 l 1
 216.30078125 71.4833984375 l 1
 510.073242188 71.4833984375 l 1
 510.073242188 728.53515625 l 1
 216.30078125 728.53515625 l 1
 216.30078125 823.913085938 l 1
715.203125 400.008789062 m 0
 715.203125 440.524414062 747.685546875 473.376953125 787.755859375 473.376953125 c 0
 827.826171875 473.376953125 860.30859375 440.524414062 860.30859375 400.008789062 c 0
 860.30859375 359.494140625 827.826171875 326.641601562 787.755859375 326.641601562 c 0
 747.685546875 326.641601562 715.203125 359.494140625 715.203125 400.008789062 c 0
EndSplineSet
Validated: 1
EndChar

StartChar: uF1960
Encoding: 989536 989536 85
Width: 1000
Flags: W
HStem: -23.8945 95.3467<235.98 765.631> 338.054 145.105<288.727 378.652 456.658 546.583 624.354 713.12> 728.566 95.3467<235.98 765.631>
VStem: 129.89 106.091<71.4521 728.566> 270.104 127.172<355.744 465.469> 438.035 127.171<355.744 465.469> 605.967 125.54<355.744 465.469> 765.631 106.091<71.4521 728.566>
LayerCount: 2
Fore
SplineSet
129.889648438 823.913085938 m 1
 871.721679688 823.913085938 l 1
 871.721679688 -23.89453125 l 1
 129.889648438 -23.89453125 l 1
 129.889648438 823.913085938 l 1
235.98046875 728.56640625 m 1
 235.98046875 71.4521484375 l 1
 765.630859375 71.4521484375 l 1
 765.630859375 728.56640625 l 1
 235.98046875 728.56640625 l 1
438.03515625 410.606445312 m 0
 438.03515625 450.682617188 466.501953125 483.159179688 501.62109375 483.159179688 c 0
 536.739257812 483.159179688 565.206054688 450.682617188 565.206054688 410.606445312 c 0
 565.206054688 370.53125 536.739257812 338.053710938 501.62109375 338.053710938 c 0
 466.501953125 338.053710938 438.03515625 370.53125 438.03515625 410.606445312 c 0
605.966796875 410.606445312 m 0
 605.966796875 450.682617188 634.075195312 483.159179688 668.736328125 483.159179688 c 0
 703.3984375 483.159179688 731.506835938 450.682617188 731.506835938 410.606445312 c 0
 731.506835938 370.53125 703.3984375 338.053710938 668.736328125 338.053710938 c 0
 634.075195312 338.053710938 605.966796875 370.53125 605.966796875 410.606445312 c 0
270.103515625 410.606445312 m 0
 270.103515625 450.682617188 298.5703125 483.159179688 333.689453125 483.159179688 c 0
 368.80859375 483.159179688 397.275390625 450.682617188 397.275390625 410.606445312 c 0
 397.275390625 370.53125 368.80859375 338.053710938 333.689453125 338.053710938 c 0
 298.5703125 338.053710938 270.103515625 370.53125 270.103515625 410.606445312 c 0
EndSplineSet
Validated: 1
EndChar

StartChar: uF1961
Encoding: 989537 989537 86
Width: 1000
Flags: W
HStem: -23.8945 91.2861<306.511 691.84> 496.219 91.2861<306.511 691.84>
VStem: 204.888 101.623<67.3916 496.219> 446.188 105.976<628.266 850> 691.84 101.622<67.3916 496.219>
LayerCount: 2
Fore
SplineSet
446.1875 628.265625 m 1
 446.1875 850 l 1
 552.163085938 850 l 1
 552.163085938 628.265625 l 1
 446.1875 628.265625 l 1
350.891601562 658.126953125 m 1
 262.836914062 607.288085938 l 1
 152.1484375 799.006835938 l 1
 240.203125 849.844726562 l 1
 350.891601562 658.126953125 l 1
751.087890625 849.844726562 m 1
 839.129882812 799.006835938 l 1
 728.442382812 607.288085938 l 1
 640.400390625 658.126953125 l 1
 751.087890625 849.844726562 l 1
204.887695312 587.504882812 m 1
 793.461914062 587.504882812 l 1
 793.461914062 -23.89453125 l 1
 204.887695312 -23.89453125 l 1
 204.887695312 587.504882812 l 1
306.510742188 496.21875 m 1
 306.510742188 67.3916015625 l 1
 691.83984375 67.3916015625 l 1
 691.83984375 496.21875 l 1
 306.510742188 496.21875 l 1
EndSplineSet
Validated: 1
EndChar

StartChar: uF1962
Encoding: 989538 989538 87
Width: 1000
Flags: W
HStem: 4.96875 289.497<76.0859 160.839 245.591 330.343 415.094 499.846 584.598 669.35> 199.124 95.3467<669.35 751.783> 423.717 146.736<405.299 507.904 614.581 717.187> 699.708 95.3438<245.589 754.528>
VStem: 76.0859 84.7529<4.96875 294.466> 245.591 84.752<4.96875 294.466> 384.049 145.105<445.208 548.963> 415.094 84.752<4.96875 294.466> 584.598 84.752<4.97363 199.124> 593.331 145.105<445.208 548.963> 843.914 105.852<395.814 602.166>
LayerCount: 2
Fore
SplineSet
384.048828125 497.084960938 m 0x3e20
 384.048828125 537.6015625 416.53125 570.453125 456.6015625 570.453125 c 0
 496.671875 570.453125 529.154296875 537.6015625 529.154296875 497.084960938 c 0
 529.154296875 456.5703125 496.671875 423.716796875 456.6015625 423.716796875 c 0
 416.53125 423.716796875 384.048828125 456.5703125 384.048828125 497.084960938 c 0x3e20
593.331054688 497.084960938 m 0x3c60
 593.331054688 537.6015625 625.813476562 570.453125 665.883789062 570.453125 c 0
 705.954101562 570.453125 738.436523438 537.6015625 738.436523438 497.084960938 c 0
 738.436523438 456.5703125 705.954101562 423.716796875 665.883789062 423.716796875 c 0
 625.813476562 423.716796875 593.331054688 456.5703125 593.331054688 497.084960938 c 0x3c60
843.9140625 497.67578125 m 0
 843.9140625 611.049825886 780.477475481 699.708007812 669.349609375 699.708007812 c 2
 245.588867188 699.708007812 l 1
 245.588867188 795.051757812 l 1
 669.349609375 795.051757812 l 2
 848.00573998 795.051757812 949.765625 664.520465804 949.765625 497.94921875 c 0
 949.765625 322.745562902 840.242440186 199.124023438 669.349609375 199.124023438 c 1
 669.349609375 4.9736328125 l 1
 584.59765625 4.9736328125 l 1
 584.59765625 294.470703125 l 1
 669.349609375 294.470703125 l 2x7ca0
 775.731762653 294.470703125 843.9140625 378.529370884 843.9140625 497.67578125 c 0
415.09375 4.96875 m 1xbd20
 415.09375 294.465820312 l 1
 499.845703125 294.465820312 l 1
 499.845703125 4.96875 l 1
 415.09375 4.96875 l 1xbd20
245.590820312 4.96875 m 1
 245.590820312 294.465820312 l 1
 330.342773438 294.465820312 l 1
 330.342773438 4.96875 l 1
 245.590820312 4.96875 l 1
76.0859375 4.96875 m 1
 76.0859375 294.465820312 l 1
 160.838867188 294.465820312 l 1
 160.838867188 4.96875 l 1
 76.0859375 4.96875 l 1
EndSplineSet
Validated: 1
EndChar

StartChar: uF1963
Encoding: 989539 989539 88
Width: 1000
Flags: W
LayerCount: 2
Fore
SplineSet
118 848 m 1
 135 835 201 753 201 752 c 0
 349 555 430 338 500 128 c 1
 576 356 656 561 799 753 c 0
 824 782 848 811 872 840 c 0
 880 846 880 846 882 848 c 2
 948 773 l 1
 946 770 946 770 880 689 c 1
 802 584 743 473 693 355 c 0
 643 235 602 109 561 -14 c 2
 550 -50 l 1
 512 -50 l 2
 506 -50 499 -50 488 -50 c 2
 450 -50 l 1
 439 -14 l 2
 353 246 277 480 120 689 c 1
 54 770 54 770 52 773 c 2
 118 848 l 1
EndSplineSet
Validated: 1
EndChar

StartChar: uF1964
Encoding: 989540 989540 89
Width: 1000
Flags: W
HStem: -35.3076 228.664<451.897 552.471> 352.32 95.3779<50 202.165 797.815 949.98> 606.662 228.664<450.252 549.162>
VStem: 50 254.114<357.041 447.471> 447.052 105.877<-35.3076 102.493 697.622 835.326> 695.866 254.114<356.826 447.695>
CounterMasks: 1 1c
LayerCount: 2
Fore
SplineSet
447.051757812 835.326171875 m 1
 552.928710938 835.326171875 l 1
 552.928710938 697.541015625 l 1
 565.564453125 696.48046875 l 1
 616.388244346 687.45466415 764.524265036 645.742517714 796.461914062 463.83984375 c 1
 797.815429688 447.698242188 l 1
 949.98046875 447.698242188 l 1
 949.98046875 352.3203125 l 1
 797.701171875 352.3203125 l 1
 796.461914062 337.270507812 l 1
 788.115253775 289.388369411 747.433719649 136.501986889 565.564453125 103.65234375 c 1
 552.928710938 102.55859375 l 1
 552.928710938 -35.3076171875 l 1
 447.051757812 -35.3076171875 l 1
 447.051757812 102.493164062 l 1
 433.567382812 103.65234375 l 1
 317.039118396 124.782744154 225.929341986 208.226689329 203.534179688 337.270507812 c 1
 202.280273438 352.3203125 l 1
 50 352.3203125 l 1
 50 447.698242188 l 1
 202.165039062 447.698242188 l 1
 203.534179688 463.83984375 l 1
 211.985743918 512.189726733 252.733612398 664.239839139 433.567382812 696.48046875 c 1
 447.051757812 697.622070312 l 1
 447.051757812 835.326171875 l 1
695.866210938 400.612304688 m 0
 695.866210938 516.17146955 624.642755497 606.662109375 499.6796875 606.662109375 c 0
 374.782633987 606.662109375 304.114257812 515.452900465 304.114257812 400.612304688 c 0
 304.114257812 279.872425457 380.063213258 193.356445312 499.6796875 193.356445312 c 0
 619.300350213 193.356445312 695.866210938 279.122671866 695.866210938 400.612304688 c 0
EndSplineSet
Validated: 1
EndChar

StartChar: uF1965
Encoding: 989541 989541 90
Width: 1000
Flags: W
HStem: 498.534 95.4922<76.0859 242.306 348.282 651.699 757.675 923.895>
VStem: 242.306 105.977<192.948 498.534> 651.699 105.976<192.948 498.534>
LayerCount: 2
Fore
SplineSet
76.0859375 594.026367188 m 1
 923.89453125 594.026367188 l 1
 923.89453125 498.534179688 l 1
 757.674804688 498.534179688 l 1
 757.674804688 192.948242188 l 1
 651.69921875 192.948242188 l 1
 651.69921875 498.534179688 l 1
 348.282226562 498.534179688 l 1
 348.282226562 192.948242188 l 1
 242.305664062 192.948242188 l 1
 242.305664062 498.534179688 l 1
 76.0859375 498.534179688 l 1
 76.0859375 594.026367188 l 1
EndSplineSet
Validated: 1
EndChar

StartChar: uF1966
Encoding: 989542 989542 91
Width: 1000
Flags: W
HStem: 125.533 146.736<448.686 551.292>
VStem: 427.436 145.106<147.024 250.779>
LayerCount: 2
Fore
SplineSet
751.279296875 694.049804688 m 1
 949.98046875 438.541992188 l 1
 870.569335938 376.784179688 l 1
 751.279296875 530.178710938 l 1
 631.989257812 376.784179688 l 1
 552.577148438 438.541992188 l 1
 751.279296875 694.049804688 l 1
248.702148438 694.049804688 m 1
 447.403320312 438.541992188 l 1
 367.991210938 376.784179688 l 1
 248.702148438 530.178710938 l 1
 129.412109375 376.784179688 l 1
 50 438.541992188 l 1
 248.702148438 694.049804688 l 1
427.435546875 198.901367188 m 0
 427.435546875 239.41796875 459.91796875 272.26953125 499.989257812 272.26953125 c 0
 540.059570312 272.26953125 572.541992188 239.41796875 572.541992188 198.901367188 c 0
 572.541992188 158.38671875 540.059570312 125.533203125 499.989257812 125.533203125 c 0
 459.91796875 125.533203125 427.435546875 158.38671875 427.435546875 198.901367188 c 0
EndSplineSet
Validated: 1
EndChar

StartChar: uF1968
Encoding: 989544 989544 92
Width: 1000
Flags: W
HStem: 352.32 95.3779<244.018 612.407>
VStem: 612.407 106.057<-23.8945 352.32 447.698 823.913>
LayerCount: 2
Fore
SplineSet
612.407226562 823.913085938 m 1
 718.463867188 823.913085938 l 1
 718.463867188 -23.89453125 l 1
 612.407226562 -23.89453125 l 1
 612.407226562 352.3203125 l 1
 244.017578125 352.3203125 l 1
 244.017578125 447.698242188 l 1
 612.407226562 447.698242188 l 1
 612.407226562 823.913085938 l 1
EndSplineSet
Validated: 1
EndChar

StartChar: uF1969
Encoding: 989545 989545 93
Width: 1000
Flags: W
HStem: -23.8945 95.3174<201.78 435.246 712.208 922.264>
LayerCount: 2
Fore
SplineSet
524.061523438 850 m 1
 712.208007812 71.4228515625 l 1
 922.263671875 71.4228515625 l 1
 922.263671875 -23.89453125 l 1
 630.573242188 -23.89453125 l 1
 464.444335938 703.200195312 l 1
 201.780273438 71.4228515625 l 1
 435.24609375 71.4228515625 l 1
 435.24609375 -23.89453125 l 1
 50 -23.89453125 l 1
 426.12890625 850 l 1
 524.061523438 850 l 1
EndSplineSet
Validated: 1
EndChar

StartChar: uF196A
Encoding: 989546 989546 94
Width: 1000
Flags: W
HStem: 85.7381 95.1474<601.179 739.921> 298.406 95.3481<253.282 389.794> 404.458 95.8429<608.866 745.399> 618.458 95.6436<258.827 397.575>
LayerCount: 2
Fore
SplineSet
72.9072265625 185.297851562 m 1
 111.570679642 307.781688181 213.911861156 393.754462576 324.313002699 393.754462576 c 0
 384.502449193 393.754462576 447.087562735 368.200720145 503.055664062 309.078125 c 0
 538.476854275 271.572165836 563.101053445 232.628444497 593.119140625 208.05859375 c 0
 594.122729051 207.236929385 627.807784825 180.885471864 673.101725671 180.885471864 c 0
 720.822224099 180.885471864 781.428785128 210.136044084 830.27734375 329.311523438 c 1
 925.39453125 289.30078125 l 1
 858.835954186 135.36592065 759.054709022 85.7380635961 671.556416744 85.7380635961 c 0
 616.785580165 85.7380635961 566.827594193 105.18383239 532.84375 130.6640625 c 0
 503.000338929 153.053654476 479.706100235 181.101112342 458.872070312 206.607421875 c 0
 418.940548169 255.454875058 383.828849879 298.406331611 318.763333528 298.406331611 c 0
 258.053835977 298.406331611 190.867528067 242.538705085 163.786132812 156.734375 c 1
 72.9072265625 185.297851562 l 1
925.795898438 614.008789062 m 1
 887.096315957 490.754483867 784.716473799 404.458310647 674.37008497 404.458310647 c 0
 614.154258087 404.458310647 551.566100861 430.156149191 495.659179688 489.569335938 c 0
 460.344021025 527.118557326 435.598552201 566.458341108 405.592773438 591.12890625 c 0
 404.589876725 591.953937851 370.913706994 618.458052065 325.6202783 618.458052065 c 0
 277.907756707 618.458052065 217.30389657 589.0471979 168.421875 469.2265625 c 1
 73.3017578125 509.453125 l 1
 140.009953067 664.350360243 239.768991437 714.101646928 327.139082605 714.101646928 c 0
 382.024347999 714.101646928 432.020609742 694.468483739 465.86328125 668.934570312 c 0
 493.24411036 648.277135387 514.368262819 623.946511807 539.842773438 592.587890625 c 0
 579.65764316 543.578802108 614.816296674 500.301163017 679.986712295 500.301163017 c 0
 740.629805701 500.301163017 807.823012526 556.44008474 834.907226562 642.720703125 c 1
 925.795898438 614.008789062 l 1
EndSplineSet
Validated: 1
EndChar

StartChar: uF196B
Encoding: 989547 989547 95
Width: 1000
Flags: W
HStem: -49.9814 95.2979<375.661 623.164> 307.076 84.8467<548.296 708.682> 754.702 95.2979<371.744 627.138>
VStem: 50 105.881<269.531 533.519> 452.709 95.5869<391.923 664.134> 844.101 105.88<268.968 534.061>
LayerCount: 2
Fore
SplineSet
452.708984375 664.133789062 m 1
 548.295898438 664.133789062 l 1
 548.295898438 391.922851562 l 1
 708.681640625 391.922851562 l 1
 708.681640625 307.076171875 l 1
 452.708984375 307.076171875 l 1
 452.708984375 664.133789062 l 1
50 401.313476562 m 0
 50 651.413811941 212.398703084 850 499.272460938 850 c 0
 786.290186193 850 949.98046875 652.996054163 949.98046875 401.313476562 c 0
 949.98046875 136.718705781 773.948849103 -49.9814453125 499.272460938 -49.9814453125 c 0
 224.588093553 -49.9814453125 50 138.377794162 50 401.313476562 c 0
844.100585938 401.036132812 m 0
 844.100585938 599.334954096 719.009345869 754.702148438 499.44140625 754.702148438 c 0
 280.019866808 754.702148438 155.880859375 598.129036243 155.880859375 401.036132812 c 0
 155.880859375 193.7466991 289.423276963 45.31640625 499.44140625 45.31640625 c 0
 709.449577085 45.31640625 844.100585938 192.437446118 844.100585938 401.036132812 c 0
EndSplineSet
Validated: 1
EndChar

StartChar: uF196C
Encoding: 989548 989548 96
Width: 1000
Flags: W
HStem: -49.9814 95.2275<395.179 604.034> 472.712 95.2285<396.343 607.054>
VStem: 169.02 106.073<164.084 354.539> 460.86 105.977<628.266 850> 724.889 106.073<163.702 354.912>
LayerCount: 2
Fore
SplineSet
169.01953125 259.873046875 m 0
 169.01953125 431.47344585 288.348863307 567.940429688 499.467773438 567.940429688 c 0
 710.639620993 567.940429688 830.961914062 432.59578319 830.961914062 259.873046875 c 0
 830.961914062 78.3103080033 701.583789998 -49.9814453125 499.467773438 -49.9814453125 c 0
 297.330734366 -49.9814453125 169.01953125 79.4483685135 169.01953125 259.873046875 c 0
724.888671875 259.59765625 m 0
 724.888671875 379.033150189 643.177947968 472.711914062 499.631835938 472.711914062 c 0
 356.159890349 472.711914062 275.092773438 378.283668443 275.092773438 259.59765625 c 0
 275.092773438 134.840552693 362.228383345 45.24609375 499.631835938 45.24609375 c 0
 637.035138556 45.24609375 724.888671875 134.055886162 724.888671875 259.59765625 c 0
349.831054688 634.734375 m 1
 261.778320312 583.897460938 l 1
 151.08984375 775.616210938 l 1
 239.142578125 826.453125 l 1
 349.831054688 634.734375 l 1
781.202148438 826.453125 m 1
 869.259765625 775.616210938 l 1
 758.571289062 583.895507812 l 1
 670.513671875 634.732421875 l 1
 781.202148438 826.453125 l 1
460.860351562 628.265625 m 1
 460.860351562 850 l 1
 566.836914062 850 l 1
 566.836914062 628.265625 l 1
 460.860351562 628.265625 l 1
EndSplineSet
Validated: 1
EndChar

StartChar: uF196D
Encoding: 989549 989549 97
Width: 1000
Flags: W
HStem: -23.9141 95.2979<183.497 818.114>
VStem: 77.7168 105.78<71.3838 417.893> 818.114 105.78<71.3838 417.893>
LayerCount: 2
Fore
SplineSet
500.805664062 879.328125 m 1
 923.89453125 455.765625 l 1
 923.89453125 -23.9140625 l 1
 77.716796875 -23.9140625 l 1
 77.716796875 455.765625 l 1
 500.805664062 879.328125 l 1
500.805664062 735.567382812 m 1
 183.497070312 417.892578125 l 1
 183.497070312 71.3837890625 l 1
 818.114257812 71.3837890625 l 1
 818.114257812 417.892578125 l 1
 500.805664062 735.567382812 l 1
EndSplineSet
Validated: 1
EndChar

StartChar: uF196E
Encoding: 989550 989550 98
Width: 1000
Flags: W
VStem: 296.19 105.976<78.9824 721.035> 597.814 105.976<78.9824 721.035>
LayerCount: 2
Fore
SplineSet
296.190429688 78.982421875 m 1
 296.190429688 721.03515625 l 1
 402.166015625 721.03515625 l 1
 402.166015625 78.982421875 l 1
 296.190429688 78.982421875 l 1
597.814453125 78.982421875 m 1
 597.814453125 721.03515625 l 1
 703.790039062 721.03515625 l 1
 703.790039062 78.982421875 l 1
 597.814453125 78.982421875 l 1
EndSplineSet
Validated: 1
EndChar

StartChar: uF196F
Encoding: 989551 989551 99
Width: 1000
Flags: W
HStem: -50 96<449.131 551.012> 279 97<406.167 593.954> 754 96<182.13 355.277 646.75 820.348>
VStem: 49 105<599.514 726.981> 283 105<132.451 298.549> 612 105<132.891 298.201> 845 105<597.166 729.272>
LayerCount: 2
Fore
SplineSet
388 299 m 1
 388 296 388 292 388 289 c 0
 388 195 409 46 500 46 c 0
 591 46 612 195 612 288 c 0
 612 292 612 295 612 299 c 1
 573 286 537 279 500 279 c 0
 465 279 428 286 388 299 c 1
397 402 m 1
 435 384 467 376 500 376 c 0
 532 376 564 384 603 402 c 1
 593 473 571 579 500 645 c 1
 479 626 422 572 397 402 c 1
584 704 m 1
 625 664 671 596 700 459 c 1
 702 460 845 569 845 669 c 0
 845 685 842 699 835 714 c 0
 821 741 790 754 750 754 c 0
 702 754 642 736 584 704 c 1
416 704 m 1
 353 739 298 754 254 754 c 0
 192 754 154 723 154 672 c 0
 154 643 167 608 194 568 c 0
 209 545 242 503 300 459 c 1
 308 498 334 623 416 704 c 1
283 295 m 0
 283 302 283 319 285 347 c 1
 167 418 49 546 49 670 c 0
 49 702 58 735 76 766 c 0
 98 802 145 850 246 850 c 0
 280 850 381 843 500 769 c 1
 535 791 640 850 754 850 c 0
 898 850 950 752 950 670 c 0
 950 548 840 422 715 347 c 1
 716 336 717 318 717 295 c 0
 717 93 638 -50 500 -50 c 0
 363 -50 283 92 283 295 c 0
EndSplineSet
Validated: 1
EndChar

StartChar: uF1970
Encoding: 989552 989552 100
Width: 1000
Flags: W
HStem: 47.8428 145.105<449.501 552.11> 279.359 95.4443<413.531 588.081> 605.555 91.1875<236.257 765.354>
VStem: 428.253 145.105<69.0909 171.7>
LayerCount: 2
Fore
SplineSet
428.252929688 120.395507812 m 0
 428.252929688 160.470703125 460.73046875 192.948242188 500.805664062 192.948242188 c 0
 540.880859375 192.948242188 573.358398438 160.470703125 573.358398438 120.395507812 c 0
 573.358398438 80.3203125 540.880859375 47.8427734375 500.805664062 47.8427734375 c 0
 460.73046875 47.8427734375 428.252929688 80.3203125 428.252929688 120.395507812 c 0
108.694335938 696.7421875 m 1
 892.916992188 696.7421875 l 1
 886.330078125 664.713867188 l 1
 822.809570312 438.258789062 674.1171875 279.359375 500.805664062 279.359375 c 0
 327.494140625 279.359375 178.801757812 438.258789062 115.28125 664.713867188 c 1
 108.694335938 696.7421875 l 1
236.256835938 605.5546875 m 1
 257.322265625 559.853515625 l 1
 316.358398438 446.5078125 403.551757812 374.803710938 500.805664062 374.803710938 c 0
 598.059570312 374.803710938 685.252929688 446.5078125 744.2890625 559.853515625 c 1
 765.353515625 605.5546875 l 1
 236.256835938 605.5546875 l 1
EndSplineSet
Validated: 1
EndChar

StartChar: uF1971
Encoding: 989553 989553 101
Width: 1000
Flags: W
LayerCount: 2
Fore
SplineSet
244.393554688 799.358398438 m 1
 499.990234375 454.961914062 l 1
 755.587890625 799.358398438 l 1
 836.193359375 739.166992188 l 1
 561.790039062 371.697265625 l 1
 742.318359375 128.44921875 l 1
 864.690429688 346.486328125 l 1
 949.98046875 293.138671875 l 1
 743.439453125 -37.078125 l 1
 499.990234375 288.938476562 l 1
 256.541992188 -37.078125 l 1
 50 293.138671875 l 1
 135.290039062 346.486328125 l 1
 257.666015625 128.44921875 l 1
 438.194335938 371.693359375 l 1
 163.787109375 739.166992188 l 1
 244.393554688 799.358398438 l 1
EndSplineSet
Validated: 1
EndChar

StartChar: uF1972
Encoding: 989554 989554 102
Width: 1000
Flags: W
HStem: 4.43359 95.4102<198.089 803.521>
LayerCount: 2
Fore
SplineSet
500.805664062 827.786132812 m 1
 571.673416484 705.010981588 642.541957433 582.236618891 713.41015625 459.461914062 c 1
 900.350585938 567.411132812 l 1
 951.219726562 479.271484375 l 1
 764.27734375 371.323242188 l 1
 976.067382812 4.43359375 l 1
 25.5439453125 4.43359375 l 1
 237.333984375 371.323242188 l 1
 50.3916015625 479.271484375 l 1
 101.260742188 567.411132812 l 1
 288.201171875 459.461914062 l 1
 359.069274694 582.236714888 429.936765903 705.012127325 500.805664062 827.786132812 c 1
500.805664062 624.262695312 m 1
 198.088867188 99.84375 l 1
 803.521484375 99.84375 l 1
 500.805664062 624.262695312 l 1
EndSplineSet
Validated: 1
EndChar

StartChar: uF1973
Encoding: 989555 989555 103
Width: 1000
Flags: W
VStem: 478.665 106.106<-49.9814 707.239>
LayerCount: 2
Fore
SplineSet
477.6875 850 m 1
 584.771484375 850 l 1
 584.771484375 -49.9814453125 l 1
 478.665039062 -49.9814453125 l 1
 478.665039062 707.239257812 l 1
 268.766601562 497.762695312 l 1
 196.736328125 569.637695312 l 1
 477.6875 850 l 1
EndSplineSet
Validated: 1
EndChar

StartChar: uF1974
Encoding: 989556 989556 104
Width: 1000
Flags: W
HStem: 234 95<467 737> 407 147<192.786 287.644 385.5 488>
VStem: 168 145<425.5 529.375> 362 105<-50 234> 364 145<428.5 532.375>
LayerCount: 2
Fore
SplineSet
364 480 m 0xe8
 364 521 397 554 437 554 c 0
 477 554 509 521 509 480 c 0
 509 440 477 407 437 407 c 0
 397 407 364 440 364 480 c 0xe8
168 477 m 0
 168 518 200 551 240 551 c 0
 280 551 313 518 313 477 c 0
 313 437 280 404 240 404 c 0
 200 404 168 437 168 477 c 0
429 850 m 1
 832 372 l 1
 832 234 l 1
 467 234 l 1
 467 -50 l 1
 362 -50 l 1
 362 329 l 1xf0
 737 329 l 1
 352 785 l 1
 429 850 l 1
EndSplineSet
Validated: 1
EndChar

StartChar: uF1975
Encoding: 989557 989557 105
Width: 1000
Flags: W
HStem: -0.236328 95.3467<426.971 572.486> 446.19 95.3467<428.09 574.581>
VStem: 250.567 105.853<174.287 367.156> 643.562 105.852<173.969 367.45>
LayerCount: 2
Fore
SplineSet
643.561523438 271.158203125 m 0
 643.561523438 369.310682534 591.360751704 446.190429688 499.760742188 446.190429688 c 0
 408.293844448 446.190429688 356.419921875 368.802400521 356.419921875 271.158203125 c 0
 356.419921875 168.461253649 412.226299055 95.1103515625 499.760742188 95.1103515625 c 0
 587.361528977 95.1103515625 643.561523438 167.897207597 643.561523438 271.158203125 c 0
250.567382812 271.431640625 m 0
 250.567382812 422.005371166 340.595432095 541.537109375 499.592773438 541.537109375 c 0
 658.707053974 541.537109375 749.413085938 422.915511931 749.413085938 271.431640625 c 0
 749.413085938 112.189086965 651.870034417 -0.236328125 499.592773438 -0.236328125 c 0
 347.341484089 -0.236328125 250.567382812 113.154379482 250.567382812 271.431640625 c 0
155.21484375 785.205078125 m 1
 220.533203125 224.338867188 l 1
 115.391601562 212.094726562 l 1
 50.0732421875 772.961914062 l 1
 155.21484375 785.205078125 l 1
844.765625 785.205078125 m 1
 949.907226562 772.961914062 l 1
 884.58984375 212.094726562 l 1
 779.448242188 224.338867188 l 1
 844.765625 785.205078125 l 1
EndSplineSet
Validated: 1
EndChar

StartChar: uF1976
Encoding: 989558 989558 106
Width: 1000
Flags: W
LayerCount: 2
Fore
SplineSet
330.213867188 302.185546875 m 1
 402.166015625 230.232421875 l 1
 121.952148438 -49.9814453125 l 1
 50 21.9716796875 l 1
 330.213867188 302.185546875 l 1
671.39453125 302.185546875 m 1
 951.611328125 21.9677734375 l 1
 879.662109375 -49.9814453125 l 1
 599.444335938 230.236328125 l 1
 671.39453125 302.185546875 l 1
879.658203125 850 m 1
 951.611328125 778.046875 l 1
 671.397460938 497.833007812 l 1
 599.444335938 569.786132812 l 1
 879.658203125 850 l 1
121.94921875 850 m 1
 402.166015625 569.782226562 l 1
 330.216796875 497.833007812 l 1
 50 778.049804688 l 1
 121.94921875 850 l 1
EndSplineSet
Validated: 1
EndChar

StartChar: uF1990
Encoding: 989584 989584 113
Width: 1000
VWidth: 1630
Flags: HW
LayerCount: 2
Fore
SplineSet
648 998 m 2
 1000 998 l 1
 1000 903 l 1
 648 903 l 2
 573 903 505 891 444 866 c 0
 383 841 331 806 289 762 c 0
 246 717 214 664 190 603 c 0
 167 541 156 474 156 401 c 0
 156 328 167 260 190 199 c 0
 214 137 246 84 289 40 c 0
 331 -5 383 -40 444 -65 c 0
 505 -90 573 -103 648 -103 c 2
 1000 -103 l 1
 1000 -198 l 1
 648 -198 l 2
 557 -198 474 -183 400 -153 c 0
 326 -123 263 -82 212 -29 c 0
 160 24 120 87 92 161 c 0
 64 234 50 314 50 402 c 0
 50 488 64 568 92 641 c 0
 120 714 160 778 212 831 c 0
 263 884 326 925 400 954 c 0
 474 984 557 998 648 998 c 2
EndSplineSet
Validated: 1
EndChar

StartChar: uF1991
Encoding: 989585 989585 114
Width: 1000
VWidth: 1630
Flags: HW
LayerCount: 2
Fore
SplineSet
352 999 m 2
 443 999 526 985 600 955 c 0
 674 926 737 885 788 832 c 0
 840 779 880 715 908 642 c 0
 936 569 950 489 950 403 c 0
 950 315 936 235 908 162 c 0
 880 88 840 25 788 -28 c 0
 737 -81 674 -122 600 -152 c 0
 526 -182 443 -197 352 -197 c 2
 0 -197 l 1
 0 -102 l 1
 352 -102 l 2
 427 -102 495 -89 556 -64 c 0
 617 -39 669 -4 711 41 c 0
 754 85 786 138 810 200 c 0
 833 261 844 329 844 402 c 0
 844 475 833 542 810 604 c 0
 786 665 754 718 711 763 c 0
 669 807 617 842 556 867 c 0
 495 892 427 904 352 904 c 2
 0 904 l 1
 0 999 l 1
 352 999 l 2
EndSplineSet
Validated: 1
EndChar

StartChar: uF1992
Encoding: 989586 989586 115
Width: 0
VWidth: 1630
Flags: HW
LayerCount: 2
Fore
SplineSet
-1000 -103 m 1
 -0 -103 l 1
 -0 -198 l 1
 -1000 -198 l 1
 -1000 -103 l 1
-1000 998 m 1
 -0 998 l 1
 -0 903 l 1
 -1000 903 l 1
 -1000 998 l 1
EndSplineSet
Validated: 1
EndChar

StartChar: uF1993
Encoding: 989587 989587 116
Width: 1000
VWidth: 1630
Flags: HW
LayerCount: 2
Fore
SplineSet
447 850 m 1
 553 850 l 1
 553 -103 l 1
 1000 -103 l 1
 1000 -198 l 1
 447 -198 l 1
 447 -195 l 1
 447 850 l 1
EndSplineSet
Validated: 1
EndChar

StartChar: uF1994
Encoding: 989588 989588 117
Width: 0
VWidth: 1630
Flags: HW
LayerCount: 2
Fore
SplineSet
-1000 -103 m 1
 -0 -103 l 1
 -0 -198 l 1
 -1000 -198 l 1
 -1000 -103 l 1
EndSplineSet
Validated: 1
EndChar
